<?xml version="1.0" encoding="UTF-8"?>
<svg id="_レイヤー_2" data-name="レイヤー 2" xmlns="http://www.w3.org/2000/svg" viewBox="0 0 239.7011719 61.6193848">
  <defs>
    <style>
      .cls-1 {
        stroke-width: 0px;
      }
    </style>
  </defs>
  <g id="_レイヤー_1-2" data-name="レイヤー 1">
    <g>
      <path class="cls-1" d="m14.4086914,61.6193848c-4.0029297,0-7.4047852-1.4003906-10.2060547-4.2026367-2.8022461-2.8012695-4.2026367-6.1872559-4.2026367-10.1577148V14.4082031c0-4.0019531,1.4086914-7.4038086,4.2265625-10.2058105C7.0439453,1.401123,10.4379883,0,14.4086914,0c4.0019531,0,7.3959961,1.4094238,10.1816406,4.2263184,2.7856445,2.8178711,4.1782227,6.2121582,4.1782227,10.1818848v6.8679199h-9.4130859v-7.0600586c0-1.4406738-.5126953-2.6728516-1.5371094-3.697998-1.0249023-1.0244141-2.2573242-1.5368652-3.6982422-1.5368652-1.4404297,0-2.6655273.5124512-3.6738281,1.5368652-1.0087891,1.0251465-1.5131836,2.2573242-1.5131836,3.697998v32.9470215c0,1.4406738.5043945,2.6655273,1.5131836,3.6740723,1.0083008,1.0085449,2.2333984,1.5126953,3.6738281,1.5126953,1.440918,0,2.6733398-.5041504,3.6982422-1.5126953,1.0244141-1.0085449,1.5371094-2.2333984,1.5371094-3.6740723v-8.3088379h9.4130859v8.4047852c0,4.0029297-1.4091797,7.3962402-4.2260742,10.1818848-2.8178711,2.7856445-6.1958008,4.1784668-10.1337891,4.1784668Z"/>
      <path class="cls-1" d="m35.0112305,60.8508301V.6242676h25.8393555v9.1252441h-16.7617188v16.4255371h12.2470703v9.1252441h-12.2470703v16.425293h16.7617188v9.1252441h-25.8393555Z"/>
      <path class="cls-1" d="m77.2841797.6242676l12.0458984,40.4760742V.6242676h9.0771484v60.2265625h-9.7490234l-12.4873047-38.5661621v38.5661621h-9.0771484V.6242676h10.1904297Z"/>
      <path class="cls-1" d="m114.3037109,9.7976074h-9.6533203V.6723633h28.3359375v9.1252441h-9.6054688v51.0532227h-9.0771484V9.7976074Z"/>
      <path class="cls-1" d="m153.5410156.6723633c5.0585938,0,8.7724609,1.3928223,11.1425781,4.1784668,2.0810547,2.4335938,3.1220703,5.8278809,3.1220703,10.1818848v8.7409668c0,4.2585449-1.6171875,7.8605957-4.8505859,10.8061523l6.7226562,26.2709961h-9.8164062l-5.5039062-22.6689453h-6.0507812v22.6689453h-9.0771484V.6723633h14.3115234Zm5.4277344,14.5043945c0-3.489502-1.7294922-5.2351074-5.1875-5.2351074h-5.4746094v19.2590332h5.4746094c1.4414062,0,2.6660156-.5117188,3.6748047-1.5368652,1.0078125-1.0244141,1.5126953-2.2573242,1.5126953-3.697998v-8.7890625Z"/>
      <path class="cls-1" d="m187.5791016,47.0187988l-2.2060547,13.8320312h-9.4511719L186.1523438.6723633h12.4863281l10.0849609,60.1784668h-9.5439453l-2.1240234-13.8320312h-9.4765625Zm4.7675781-32.5625l-3.3613281,23.7255859h6.7236328l-3.3623047-23.7255859Z"/>
      <path class="cls-1" d="m239.7011719,60.8508301h-24.7333984V.6723633h9.0771484v51.1494141h15.65625v9.0290527Z"/>
    </g>
  </g>
</svg>