<?xml version="1.0" encoding="UTF-8"?>
<svg id="_レイヤー_2" data-name="レイヤー 2" xmlns="http://www.w3.org/2000/svg" viewBox="0 0 242 61.715332">
  <defs>
    <style>
      .cls-1, .cls-2 {
        stroke-width: 0px;
      }

      .cls-2 {
        opacity: 0;
      }
    </style>
  </defs>
  <g id="_レイヤー_1-2" data-name="レイヤー 1">
    <rect class="cls-2" y=".715332" width="242" height="61"/>
    <g>
      <path class="cls-1" d="m15.2719727,61.715332c-4.0029297,0-7.4047852-1.4003906-10.2060547-4.2026367-2.8022461-2.8012695-4.2026367-6.1872559-4.2026367-10.1577148V14.5041504c0-4.0019531,1.4086914-7.4038086,4.2265625-10.2058105C7.9072266,1.4970703,11.3012695.0959473,15.2719727.0959473c4.0019531,0,7.3959961,1.4094238,10.1816406,4.2263184,2.7856445,2.8178711,4.1782227,6.2121582,4.1782227,10.1818848v6.8679199h-9.4130859v-7.0600586c0-1.4406738-.5126953-2.6728516-1.5371094-3.697998-1.0249023-1.0244141-2.2573242-1.5368652-3.6982422-1.5368652-1.4404297,0-2.6655273.5124512-3.6738281,1.5368652-1.0087891,1.0251465-1.5131836,2.2573242-1.5131836,3.697998v32.9470215c0,1.4406738.5043945,2.6655273,1.5131836,3.6740723,1.0083008,1.0085449,2.2333984,1.5126953,3.6738281,1.5126953,1.440918,0,2.6733398-.5041504,3.6982422-1.5126953,1.0244141-1.0085449,1.5371094-2.2333984,1.5371094-3.6740723v-8.3088379h9.4130859v8.4047852c0,4.0029297-1.4091797,7.3962402-4.2260742,10.1818848-2.8178711,2.7856445-6.1958008,4.1784668-10.1337891,4.1784668Z"/>
      <path class="cls-1" d="m60.6083984,60.9467773h-24.7338867V.7683105h9.0776367v51.1494141h15.65625v9.0290527Z"/>
      <path class="cls-1" d="m81.2119141,0c4.0019531,0,7.4033203,1.4091797,10.2050781,4.2263184,2.8017578,2.8178711,4.203125,6.2121582,4.203125,10.1818848v32.8508301c0,4.0026855-1.4101562,7.4042969-4.2265625,10.2058105-2.8183594,2.802002-6.2119141,4.2023926-10.1816406,4.2023926-4.0029297,0-7.3964844-1.4086914-10.1826172-4.2265625-2.7851562-2.8168945-4.1777344-6.2111816-4.1777344-10.1816406V14.4082031c0-4.0021973,1.4082031-7.4038086,4.2265625-10.2058105,2.8164062-2.8015137,6.1953125-4.2023926,10.1337891-4.2023926Zm4.9462891,14.2160645c0-1.440918-.5039062-2.6655273-1.5126953-3.6740723s-2.2333984-1.5129395-3.6738281-1.5129395c-1.4414062,0-2.6738281.5043945-3.6982422,1.5129395-1.0253906,1.0085449-1.5371094,2.2331543-1.5371094,3.6740723v32.9467773c0,1.440918.5117188,2.6655273,1.5371094,3.6740723,1.0244141,1.0085449,2.2568359,1.5129395,3.6982422,1.5129395,1.4404297,0,2.6650391-.5043945,3.6738281-1.5129395s1.5126953-2.2331543,1.5126953-3.6740723V14.2160645Z"/>
      <path class="cls-1" d="m131.8798828,45.9621582c.0644531,4.1948242-1.0244141,7.7805176-3.265625,10.7583008-1.4726562,2.0170898-3.5537109,3.4421387-6.2431641,4.2744141-1.4414062.447998-3.1220703.6723633-5.0429688.6723633-3.5546875,0-6.5009766-.8803711-8.8369141-2.6416016-1.9541016-1.4406738-3.4990234-3.4016113-4.6347656-5.8833008-1.1376953-2.480957-1.8017578-5.3227539-1.9931641-8.5249023l8.6445312-.6242676c.3847656,3.5080566,1.3125,6.0505371,2.7861328,7.6271973,1.0878906,1.190918,2.3369141,1.7546387,3.7460938,1.6899414,1.984375-.0637207,3.5693359-1.0415039,4.7539062-2.9326172.6083984-.9289551.9130859-2.2587891.9130859-3.9892578,0-2.4997559-1.1367188-4.9836426-3.4101562-7.4509277-1.7929688-1.6982422-4.4833984-4.2460938-8.0683594-7.6433105-3.0097656-2.9160156-5.1386719-5.5283203-6.3876953-7.8359375-1.3447266-2.5957031-2.0175781-5.4157715-2.0175781-8.4602051,0-5.4797363,1.8408203-9.6303711,5.5234375-12.4504395,2.2734375-1.6982422,5.0908203-2.5476074,8.453125-2.5476074,3.2333984,0,6.0029297.7202148,8.3085938,2.1611328,1.7929688,1.1210938,3.2421875,2.6894531,4.3466797,4.7067871,1.1044922,2.0170898,1.7685547,4.3388672,1.9931641,6.9638672l-8.6933594,1.5849609c-.2568359-2.4650879-.9609375-4.3862305-2.1132812-5.7634277-.8330078-.9919434-2.0332031-1.4887695-3.6015625-1.4887695-1.6660156,0-2.9296875.7368164-3.7949219,2.2092285-.7041016,1.1850586-1.0566406,2.657959-1.0566406,4.4187012,0,2.7539062,1.1845703,5.5554199,3.5546875,8.4047852.8955078,1.0888672,2.2402344,2.369873,4.0341797,3.842041,2.1132812,1.7612305,3.5058594,2.9943848,4.1787109,3.6982422,2.2402344,2.2414551,3.9697266,4.4506836,5.1865234,6.6276855.5761719,1.0251465,1.0400391,1.9692383,1.3925781,2.8337402.8642578,2.1455078,1.3125,4.0664062,1.3447266,5.7631836Z"/>
      <path class="cls-1" d="m138.1230469,60.9467773V.7202148h25.8388672v9.1252441h-16.7617188v16.4255371h12.2470703v9.1252441h-12.2470703v16.425293h16.7617188v9.1252441h-25.8388672Z"/>
    </g>
  </g>
</svg>