<?xml version="1.0" encoding="UTF-8"?>
<svg id="_レイヤー_2" data-name="レイヤー 2" xmlns="http://www.w3.org/2000/svg" viewBox="0 0 128.3774414 116.302281">
  <defs>
    <style>
      .cls-1 {
        fill: none;
        stroke: #000;
        stroke-miterlimit: 10;
      }

      .cls-2 {
        stroke-width: 0px;
      }
    </style>
  </defs>
  <g id="_レイヤー_1-2" data-name="レイヤー 1">
    <g>
      <path class="cls-2" d="m6.8168945,26.0769043v19.1518555H0V.0361328h6.8168945v19.1879883h8.2236328V.0361328h6.8164062v45.192627h-6.8164062v-19.1518555H6.8168945Z"/>
      <path class="cls-2" d="m26.5454102,45.2287598V0h19.4042969v6.8527832h-12.5874023v12.3352051h9.1972656v6.8527832h-9.1972656v12.3352051h12.5874023v6.8527832h-19.4042969Z"/>
      <path class="cls-2" d="m61.3867188.0361328c3.7988281,0,6.5878906,1.0458984,8.3676758,3.1376953,1.5625,1.8276367,2.3442383,4.376709,2.3442383,7.6464844v6.564209c0,3.1982422-1.2143555,5.9033203-3.6430664,8.1152344l5.0493164,19.7290039h-7.3720703l-4.1333008-17.0239258h-4.5444336v17.0239258h-6.8168945V.0361328h10.7485352Zm4.0751953,10.892334c0-2.6206055-1.2983398-3.9313965-3.8950195-3.9313965h-4.1118164v14.4631348h4.1118164c1.0820312,0,2.0014648-.3842773,2.7592773-1.1540527.7573242-.7692871,1.1357422-1.6953125,1.1357422-2.7773438v-6.6003418Z"/>
      <path class="cls-2" d="m78.1933594,45.2287598V0h19.4042969v6.8527832h-12.5874023v12.3352051h9.1972656v6.8527832h-9.1972656v12.3352051h12.5874023v6.8527832h-19.4042969Z"/>
      <path class="cls-2" d="m107.0083008,25.2834473V0h6.8168945v25.2834473l-.5048828,8.7282715h-5.8071289l-.5048828-8.7282715Zm0,19.9453125v-6.8527832h6.8168945v6.8527832h-6.8168945Z"/>
      <path class="cls-2" d="m121.5605469,25.2834473V0h6.8168945v25.2834473l-.5048828,8.7282715h-5.8071289l-.5048828-8.7282715Zm0,19.9453125v-6.8527832h6.8168945v6.8527832h-6.8168945Z"/>
    </g>
    <polyline class="cls-1" points=".7896924 56.0488281 67.1069594 56.0488281 110.6007467 112.4482422 84.4140625 56.0488281 127.7825849 56.0488281"/>
  </g>
</svg>