<?xml version="1.0" encoding="UTF-8"?>
<svg id="_レイヤー_2" data-name="レイヤー 2" xmlns="http://www.w3.org/2000/svg" viewBox="0 0 237 53">
  <defs>
    <style>
      .cls-1, .cls-2 {
        stroke-width: 0px;
      }

      .cls-2 {
        opacity: .01;
      }
    </style>
  </defs>
  <g id="_レイヤー_1-2" data-name="レイヤー 1">
    <rect class="cls-2" width="237" height="53"/>
    <g>
      <path class="cls-1" d="m8.1411133,10.2392578l.3564453-.4616699c.027832-.0419922.0698242-.1013184.1259766-.1782227.0556641-.0769043.1010742-.1328125.1362305-.1679688.034668-.034668.0737305-.0698242.1157227-.1049805.0415039-.034668.0834961-.0522461.1254883-.0522461.1396484,0,.4301758.2028809.8710938.6083984.4404297.4057617.6606445.6855469.6606445.8393555-.1674805.1960449-.4614258.3356934-.8813477.4194336v2.6437988c.0283203,1.7766113.0839844,3.4621582.1679688,5.0566406-.0981445.1259766-.2832031.248291-.5556641.3671875-.2729492.1186523-.5073242.1784668-.703125.1784668-.1962891,0-.2939453-.1401367-.2939453-.4196777.0141602-.0561523.0244141-.1083984.0317383-.1574707.0068359-.0490723.0136719-.1120605.0209961-.1887207.0068359-.0771484.0170898-.1503906.03125-.2202148v-.482666H3.8813477v.4406738c.0141602.1257324.0244141.2443848.0317383.3566895.0068359.1118164.0102539.1992188.0102539.262207s.0068359.1223145.0209961.1782227c-.0419922.1398926-.1645508.2729492-.3671875.3986816-.2026367.1259766-.4511719.1889648-.7446289.1889648-.0981445,0-.1889648-.0456543-.2729492-.1364746-.0839844-.0910645-.1259766-.1923828-.1259766-.3041992.0976562-1.4125977.1606445-2.972168.1889648-4.6789551v-2.5808105c-.7133789.5036621-1.5180664,1.0002441-2.4130859,1.4897461l-.2094727-.3146973c1.034668-.6713867,1.9091797-1.3288574,2.6225586-1.9724121v-.7973633c0-.4055176-.0141602-.7060547-.0419922-.9020996l1.2172852.6293945c.769043-.7412109,1.4892578-1.5385742,2.1611328-2.3918457h-2.1196289c-.9091797.013916-1.9794922.1188965-3.2099609.3146973L.0839844,6.9660645c.9506836.0979004,1.8950195.1608887,2.8325195.1887207h1.3847656v-3.0002441h-1.0913086c-.5595703.013916-1.2099609.1188965-1.9511719.3146973l-.5454102-1.1330566c.8110352.1120605,1.6293945.1750488,2.4545898.1887207h1.1333008c0-1.3007812-.0629883-2.3918457-.1889648-3.2731934,1.3706055.4060059,2.0561523.706543,2.0561523.9023438,0,.0561523-.0629883.1259766-.1884766.2097168l-.3989258.230957v1.9301758h1.1748047l.8603516-1.1958008c.4619141.3637695.8950195.734375,1.3007812,1.1120605.5317383-1.0493164.8881836-1.9440918,1.0703125-2.685791,1.1748047.5874023,1.7695312.9724121,1.7836914,1.1540527,0,.0559082-.0771484.0979004-.230957.1257324l-.440918.0629883c-.9091797,1.8327637-1.9931641,3.5180664-3.2519531,5.0566406h1.2167969l.440918-.6083984c.0419922-.0556641.1079102-.1501465.1992188-.2832031.0908203-.1328125.1606445-.2236328.2099609-.2727051.0488281-.0488281.1010742-.0734863.1572266-.0734863.1396484,0,.4472656.217041.9233398.6503906.4750977.4338379.7133789.7275391.7133789.8813477-.0561523.223877-.230957.3356934-.5249023.3356934h-3.8813477c-.9516602,1.0490723-1.7490234,1.8674316-2.3920898,2.454834h3.2314453Zm.2094727,3.4619141v-2.8115234h-4.2172852l-.2519531.2099609v2.6015625h4.4692383Zm-4.4692383.6506348v2.9165039h4.4692383v-2.9165039H3.8813477Zm4.637207-10.1972656h-2.9375v3.0002441h.8813477c.6572266-.8110352,1.3427734-1.8112793,2.0561523-3.0002441Zm8.6235352-1.6577148h-3.5878906v11.75c.027832,1.7487793.0839844,3.4272461.1679688,5.0356445-.3081055.4196777-.734375.6293945-1.2797852.6293945-.0981445,0-.1962891-.0490723-.2939453-.1467285-.0981445-.0981445-.1469727-.1960449-.1469727-.2937012.1396484-2.1120605.2236328-3.9726562.2519531-5.5812988V5.3503418c0-1.720459-.0981445-3.189209-.2939453-4.40625l1.8256836.9443359h3.3149414l.3989258-.4406738c.0419922-.0419922.0908203-.0944824.1469727-.1572266.0556641-.0629883.1010742-.1118164.1362305-.1469727.034668-.034668.0732422-.0661621.1152344-.0944824.0419922-.027832.0839844-.0419922.1259766-.0419922.1259766,0,.4125977.234375.8603516.7028809.4472656.4689941.6713867.7800293.6713867.9338379-.1401367.1540527-.4545898.2307129-.9443359.2307129-1.2871094,2.5319824-2.3012695,4.3642578-3.0424805,5.4973145,2.2241211,1.6367188,3.3364258,3.4482422,3.3364258,5.4343262,0,1.0632324-.2275391,1.8569336-.6821289,2.3815918-.4545898.5244141-1.2202148.8149414-2.2973633.8706055,0-.5454102-.0839844-.9160156-.2519531-1.1120605-.2094727-.1677246-.6367188-.2727051-1.2797852-.3146973v-.3356934h1.9301758c.237793,0,.4335938-.0419922.5878906-.1259766.4194336-.2375488.6293945-.776123.6293945-1.6154785,0-1.8322754-.8256836-3.5529785-2.4760742-5.1616211.4194336-.9790039,1.1123047-2.9443359,2.0771484-5.8959961Z"/>
      <path class="cls-1" d="m36.6552734,7.2177734l.2939453-.503418c.027832-.0280762.059082-.0734863.0942383-.1364746.034668-.0629883.0664062-.1081543.0942383-.1364746.027832-.027832.0556641-.0627441.0839844-.1047363.027832-.0419922.0595703-.0698242.0947266-.0839844.034668-.013916.065918-.0209961.0942383-.0209961.1396484,0,.4541016.206543.9443359.6188965.4892578.4128418.734375.6960449.734375.8498535-.1679688.2380371-.4619141.3847656-.8813477.4406738v7.3017578c0,.6157227-.1469727,1.0771484-.440918,1.3847656-.293457.3078613-.9018555.503418-1.8251953.5874023-.0981445-.4753418-.2519531-.7973633-.4614258-.9650879-.3920898-.2797852-1.0214844-.4685059-1.8886719-.5666504v-.3146973c1.46875.0981445,2.3779297.1469727,2.7275391.1469727s.5249023-.1396484.5249023-.4196777v-7.4484863h-4.847168v6.126709c.027832,1.7766113.0839844,3.4619141.1679688,5.0566406-.0839844.1677246-.265625.3283691-.5454102.4824219-.2802734.1538086-.5385742.230957-.7763672.230957-.1259766,0-.2412109-.0456543-.3461914-.1364746-.1049805-.0910645-.1572266-.1923828-.1572266-.3041992.1254883-1.8464355.2026367-3.706543.2304688-5.5812988v-5.8747559h-4.7836914v4.0283203c.027832,1.7766113.0839844,3.4621582.1679688,5.0568848-.0981445.1398926-.2661133.2692871-.5039062.3881836s-.496582.1782227-.7763672.1782227c-.1118164,0-.2094727-.0419922-.293457-.1259766-.0839844-.0837402-.1259766-.1816406-.1259766-.2937012.0839844-1.3146973.1396484-2.6574707.1679688-4.0285645v-2.2241211c0-1.8044434-.0913086-3.2731934-.2729492-4.40625l1.7416992.7973633h4.6787109v-3.189209h-5.0356445c-1.0351562.0141602-2.1123047.1120605-3.230957.2937012l-.5668945-1.1120605c.7832031.0839844,1.7416992.1401367,2.8745117.1679688h5.9589844c0-1.2868652-.0629883-2.3847656-.1884766-3.2941895,1.4267578.4057617,2.1328125.7133789,2.1191406.9230957,0,.0561523-.0561523.1259766-.1679688.2099609l-.3359375.2307129v1.9304199h5.7280273l.4829102-.6503906c.027832-.0419922.065918-.0979004.1152344-.1679688.0488281-.0698242.0908203-.1259766.1259766-.1679688.034668-.041748.0698242-.0871582.1049805-.1362305.034668-.0488281.065918-.0871582.0942383-.1154785.027832-.027832.0595703-.0524902.0947266-.0734863.034668-.0209961.065918-.0314941.0942383-.0314941.1396484,0,.4931641.2380371,1.0595703.713623s.8496094.7902832.8496094.9440918c-.0561523.223877-.2446289.3356934-.5664062.3356934h-8.4975586c.293457.1398926.503418.262207.6293945.3671875s.1816406.1960449.1679688.2727051c-.0141602.0771484-.0771484.1574707-.1889648.2414551l-.2939453.2097168v2.0981445h4.6582031Z"/>
      <path class="cls-1" d="m56.7558594,6.4204102c.6850586-.3493652,1.3530273-.4753418,2.0039062-.3776855.6503906.0981445,1.0942383.4338379,1.3320312,1.0073242.237793.5737305.1538086,1.1259766-.2514648,1.6574707-.5180664.699707-1.434082,1.3220215-2.7490234,1.8674316-.237793.0981445-.7939453.3220215-1.6679688.6713867-.8745117.3498535-1.5629883.6367188-2.0668945.8603516-.0698242.5737305-.0976562,1.220459-.0834961,1.9406738.0136719.7207031.0170898,1.1508789.0102539,1.2905273-.0073242.1398926-.0981445.2905273-.2729492.4511719-.1748047.1608887-.3496094.2307129-.5244141.2097168s-.3217773-.1013184-.4404297-.2412109c-.1191406-.1396484-.1855469-.2797852-.1992188-.4196777-.0141602-.1958008.0556641-1.0559082.2094727-2.5808105-1.1049805.5036621-1.8745117,1.1540527-2.3081055,1.951416-.2797852.5175781-.3950195.9755859-.3461914,1.3742676s.2729492.706543.6713867.9230957c.3989258.217041.8217773.3535156,1.2695312.4091797.9091797.0561523,1.5595703.0666504,1.9516602.0314941.3911133-.034668.9506836-.1362305,1.6782227-.3041992,1.0493164-.237793,1.6503906-.1396484,1.8046875.2937012.0976562.3078613-.0629883.5666504-.4829102.7763672-1.0351562.517334-2.6015625.6643066-4.699707.4406738-1.1049805-.1259766-1.8642578-.3986816-2.2763672-.8183594-.4130859-.4196777-.6435547-.8950195-.6928711-1.4267578-.0488281-.5314941.0595703-1.0942383.3256836-1.6889648.2651367-.5944824.7548828-1.1574707,1.46875-1.689209.4194336-.279541.9785156-.5942383,1.6782227-.9440918.0556641-1.1887207-.0839844-2.0144043-.4194336-2.4758301-.1962891-.2519531-.4755859-.3916016-.8393555-.4196777-.7275391-.0698242-1.671875.6855469-2.8325195,2.2661133-.8115234,1.1328125-1.2797852,1.7451172-1.4057617,1.8359375-.1259766.0910645-.2905273.0874023-.4931641-.010498-.203125-.0979004-.3393555-.230957-.4091797-.3986816-.0703125-.1679688-.0874023-.3811035-.0522461-.6401367.034668-.2585449.0908203-.4333496.1674805-.5244141.0766602-.0908203.2832031-.2902832.6191406-.5979004.8950195-.8112793,1.5244141-1.5385742,1.8881836-2.1821289.7553711-1.3010254,1.3432617-2.6367188,1.7626953-4.0075684-.8393555.223877-1.5527344.2937012-2.1401367.2097168s-1.2241211-.4055176-1.9091797-.9650879c-.0839844-.0839844-.1049805-.1538086-.0629883-.2099609.0419922-.0556641.269043-.0136719.6816406.1259766.4125977.1398926.972168.1855469,1.6787109.1362305.7060547-.0488281,1.3950195-.1918945,2.0668945-.4299316l.0625-.3776855.0629883-.3776855c.0839844-.7272949-.1254883-1.3010254-.6293945-1.7207031-.0839844-.0698242-.1118164-.1640625-.0839844-.2832031.027832-.1186523.1186523-.1782227.2729492-.1782227.1538086,0,.4091797.0385742.765625.1152344.3569336.0771484.5839844.1716309.6821289.2834473.0976562.1818848.1259766.4755859.0839844.8811035.237793.2380371.6503906.3220215,1.237793.251709.0839844-.0698242.262207-.1010742.5351562-.0942383.2729492.0070801.4335938.1015625.4824219.2832031.0488281.1818848-.0385742.3986816-.262207.6503906-.4755859.5178223-1.3637695,1.0002441-2.6645508,1.4477539-.5039062,1.6088867-1.0073242,2.9726562-1.5107422,4.0915527.6293945-.3356934,1.3217773-.3986816,2.0771484-.1889648.3637695.0981445.6748047.3220215.9335938.6716309s.4301758.6713867.5141602.9650879l.1049805.4616699c.8671875-2.0280762,2.0981445-3.447998,3.6928711-4.2595215Zm-5.2456055-3.7976074c-.0419922.2380371-.1123047.4897461-.2099609.7553711.1538086-.0698242.3779297-.2026367.6713867-.3986816-.0419922-.1679688-.1958008-.2866211-.4614258-.3566895Zm1.972168,8.7705078c1.3847656-.6433105,2.3920898-1.1540527,3.0214844-1.5317383s1.1542969-.7763672,1.5737305-1.1960449c.7973633-.8110352,1.0351562-1.4267578.7133789-1.8464355-.3774414-.251709-.8955078-.2480469-1.5527344.010498-.6577148.2590332-1.2485352.6472168-1.7729492,1.1645508-.5244141.5175781-.9233398,1.0070801-1.1958008,1.46875-.2729492.4616699-.5283203,1.0910645-.7661133,1.8884277l-.0209961.0419922Z"/>
      <path class="cls-1" d="m67.1835938,19.9118652c-.0839844-.5454102-.2519531-.9125977-.503418-1.1015625-.2519531-.1887207-.7275391-.3322754-1.4267578-.4299316v-.3566895c1.1884766.0979004,1.9018555.1467285,2.1401367.1467285.1674805,0,.2866211-.0314941.3564453-.0944824.0698242-.0627441.1049805-.1782227.1049805-.3461914v-6.1687012c-.9091797.4899902-1.6435547.8674316-2.203125,1.1330566-.0703125.2658691-.203125.447998-.3984375.5456543l-.7763672-1.7834473c.7973633-.1958008,1.9228516-.5524902,3.3779297-1.0700684v-4.6162109h-.9863281c-.5175781.0141602-1.0771484.1120605-1.6782227.2937012l-.5458984-1.1120605c.6157227.0839844,1.3500977.1401367,2.203125.1679688h1.0073242v-.5874023c0-1.8044434-.0913086-3.2731934-.2729492-4.40625,1.4267578.4057617,2.140625.706543,2.140625.9020996,0,.0561523-.0629883.1259766-.1889648.2099609l-.3779297.2307129v3.6508789h.4199219l.3564453-.5874023c.027832-.0419922.0664062-.1013184.1157227-.1784668.0488281-.0766602.0869141-.1328125.1152344-.1677246.027832-.0349121.0629883-.0769043.1049805-.1259766.0419922-.0488281.0800781-.0839844.1152344-.1049805.034668-.0209961.0664062-.0314941.0942383-.0314941.1259766,0,.3989258.2133789.8183594.6401367.4199219.4267578.6293945.7167969.6293945.8706055-.0556641.223877-.2236328.3356934-.503418.3356934h-2.2661133v4.1755371c.1259766-.0419922.9931641-.3496094,2.6020508-.9233398l.1049805.3146973c-.0981445.0561523-1.0004883.5598145-2.7070312,1.5107422v7.0290527c0,.6433105-.1259766,1.1188965-.3774414,1.4267578-.2519531.3076172-.7836914.510498-1.5947266.6083984Zm9.8613281-13.239502l.2939453-.4406738c.0136719-.0136719.0595703-.0766602.1362305-.1889648.0766602-.1115723.1367188-.1850586.1787109-.2202148.0419922-.034668.0908203-.0524902.1464844-.0524902.1396484,0,.4199219.1855469.8393555.5561523.4199219.3706055.6293945.6330566.6293945.7868652-.0834961.1398926-.3286133.2658691-.734375.3774414v1.5947266c.027832,1.3010254.0698242,2.3222656.1259766,3.0634766-.0698242.1120605-.2446289.2307129-.5244141.3566895-.2797852.1257324-.5175781.1887207-.7133789.1887207-.1962891,0-.2939453-.1467285-.2939453-.4406738.0141602-.027832.0244141-.0732422.0317383-.1362305.0068359-.0629883.0170898-.1154785.03125-.1574707v-.3776855h-3.7558594v5.9379883c0,.223877.0805664.3708496.2416992.4406738.1606445.0700684.5415039.1047363,1.1435547.1047363h3.4619141c1.8461914,0,2.9233398-.0136719,3.230957-.041748.265625-.0280762.4619141-.1259766.5878906-.2939453.1674805-.3215332.3842773-1.0837402.6503906-2.2868652h.2724609l.0419922,2.3708496c.4755859.1259766.7133789.3220215.7133789.5876465,0,.1813965-.0664062.3283691-.1992188.4404297-.1333008.1118164-.4057617.2026367-.8183594.2729492-.4125977.0698242-.96875.1186523-1.6679688.1467285-.699707.027832-1.6508789.0419922-2.8535156.0419922h-3.5039062c-1.0634766,0-1.7661133-.1015625-2.1088867-.3041992-.3427734-.2028809-.5141602-.6188965-.5141602-1.2485352v-3.7556152c0-1.5385742-.0839844-2.8254395-.2514648-3.8608398l1.8041992.8183594h3.5249023v-3.6508789h-4.4482422l-.1674805-.5246582c-.6157227.7275391-1.2382812,1.3361816-1.8676758,1.8254395l-.293457-.2097168c.8666992-1.0490723,1.6572266-2.3217773,2.3706055-3.8186035.3076172-.6574707.5947266-1.4375.8603516-2.3395996.265625-.9023438.4199219-1.6472168.4614258-2.2346191,1.440918.5036621,2.168457.8464355,2.1821289,1.0280762,0,.0561523-.0698242.1120605-.2094727.1679688l-.3989258.1257324c-.1538086.4616699-.4404297,1.1262207-.8598633,1.9934082h6.5668945l.3149414-.4196777c.265625-.2937012.4335938-.4406738.503418-.4406738.1396484,0,.4233398.1855469.8500977.5561523.4262695.3708496.6396484.6330566.6396484.7868652-.1259766.1540527-.3984375.2658691-.8183594.3356934-.0698242,3.2453613-.2167969,5.6965332-.4404297,7.354248-.2241211,1.6574707-.5454102,2.7312012-.965332,3.2207031-.4897461.5454102-1.1538086.8181152-1.9931641.8181152,0-.4614258-.1049805-.7971191-.3144531-1.0070801-.2661133-.2097168-.7553711-.3776855-1.46875-.503418l.0209961-.3566895c.1811523.013916.4296875.03125.7446289.0522461s.5942383.0419922.8393555.0629883c.2446289.0209961.4160156.0314941.5141602.0314941.3212891,0,.559082-.0766602.7133789-.2307129.559082-.5734863.9091797-3.7768555,1.0488281-9.6098633h-7.0917969c-.5454102,1.0070801-1.1538086,1.9094238-1.8256836,2.7067871h4.3852539Z"/>
      <path class="cls-1" d="m97.4604492,19.2404785c-.3637695.0419922-.6855469-.3078613-.965332-1.0490723-.0419922-.1118164-.0981445-.265625-.1679688-.4616699-.0698242-.1955566-.1992188-.527832-.3876953-.996582-.1889648-.4685059-.4511719-1.0349121-.7871094-1.6994629-.3354492-.6643066-.5771484-1.1083984-.7236328-1.3325195-.1469727-.2233887-.3671875-.5244141-.6611328-.9020996-.4194336-.517334-.7763672-.9931641-1.0703125-1.4267578-.293457-.4333496-.4580078-.8566895-.4926758-1.2695312-.0351562-.4123535.2094727-1.041748.734375-1.8881836.5244141-.8461914,1.1958008-1.8674316,2.0141602-3.0634766s1.2553711-1.8569336,1.3115234-1.9829102c.3212891-.7133789.3212891-1.2028809,0-1.46875-.2519531-.1257324-.4233398-.251709-.5141602-.3776855-.0913086-.1257324-.1015625-.2233887-.0317383-.2937012.0698242-.0698242.3251953-.0419922.7661133.0839844.4404297.1259766.8286133.3078613,1.1645508.5456543.559082.4057617.6572266.9304199.293457,1.5734863-.1958008.3640137-.5527344.8393555-1.0698242,1.4267578-1.3710938,1.5107422-2.6230469,3.0634766-3.7558594,4.657959-.3500977.5036621-.3291016.965332.0629883,1.3850098.4892578.4897461,1.0664062,1.1225586,1.730957,1.8986816.6640625.7763672,1.1186523,1.3466797,1.3637695,1.7102051.2446289.3637695.5.7624512.765625,1.1958008.5595703.8955078.8881836,1.7312012.9863281,2.5075684.0976562.776123-.0913086,1.1853027-.5664062,1.2272949Z"/>
      <path class="cls-1" d="m108.6542969,14.7294922c.5522461-.5456543,1.2202148-.8183594,2.003418-.8183594s1.4443359.2727051,1.9829102.8183594c.5385742.5454102.8076172,1.203125.8076172,1.972168,0,.7836914-.269043,1.4477539-.8076172,1.9934082-.5385742.5454102-1.199707.8181152-1.9829102.8181152s-1.4511719-.2727051-2.003418-.8181152c-.5527344-.5456543-.8291016-1.2097168-.8291016-1.9934082,0-.769043.2763672-1.4267578.8291016-1.972168Zm.3984375,3.5878906c.4545898.4475098.9892578.6713867,1.6049805.6713867s1.1469727-.223877,1.5947266-.6713867.6713867-.9863281.6713867-1.6157227c0-.6152344-.2236328-1.1435547-.6713867-1.5839844-.4477539-.4406738-.9790039-.6611328-1.5947266-.6611328s-1.1503906.220459-1.6049805.6611328c-.4545898.4404297-.6821289.96875-.6821289,1.5839844,0,.6293945.2275391,1.1682129.6821289,1.6157227Z"/>
      <path class="cls-1" d="m16.7856445,35.3444824l.3774414-.6293945c.027832-.0419922.0664062-.1013184.1157227-.1782227.0488281-.0769043.0869141-.1364746.1152344-.1784668.027832-.0419922.0629883-.0871582.1049805-.1364746.0419922-.0488281.0800781-.0837402.1152344-.1047363.034668-.0209961.0664062-.0314941.0942383-.0314941.1259766,0,.4160156.2202148.8710938.6608887.4541016.4406738.6816406.7380371.6816406.8918457-.0419922.2097168-.2167969.3146973-.5244141.3146973h-6.0219727c.2797852,1.8745117.7832031,3.5249023,1.5107422,4.9516602.3496094-.5874023.6611328-1.262207.9335938-2.0246582.2729492-.762207.4370117-1.4233398.4931641-1.9829102,1.3427734.5317383,2.0141602.8884277,2.0141602,1.0700684-.0136719.0561523-.0834961.1049805-.2094727.1469727l-.3989258.1257324c-.5874023,1.4550781-1.3007812,2.7209473-2.1401367,3.7978516.7133789,1.0212402,1.503418,1.8117676,2.3710938,2.3710938.265625.223877.4614258.1960449.5874023-.0839844.265625-.517334.5175781-1.2028809.7553711-2.0563965l.2519531.0839844-.2519531,2.6018066c.4619141.5595703.6152344.9650879.4619141,1.217041-.1259766.2097168-.3325195.3078613-.6191406.2937012-.2871094-.013916-.5805664-.0871582-.8813477-.220459-.3007812-.1325684-.6049805-.3110352-.9125977-.5349121-1.0634766-.7553711-1.9443359-1.6435547-2.644043-2.6647949-1.0488281,1.0910645-2.230957,1.9655762-3.5458984,2.6228027l-.2724609-.2727051c1.2446289-.8813477,2.3149414-1.9650879,3.2099609-3.2521973-1.0209961-1.7485352-1.6923828-3.8115234-2.0141602-6.1896973H3.4829102v2.6855469c0,.7836914-.0283203,1.4724121-.0839844,2.0668945-.0561523.5947266-.1679688,1.2902832-.3354492,2.0876465-.1679688.7973633-.4550781,1.5493164-.8603516,2.2556152-.40625.706543-.9233398,1.3395996-1.5527344,1.8989258l-.2729492-.2729492c.7412109-1.0769043,1.2275391-2.2587891,1.4584961-3.5458984.2304688-1.2868652.3461914-2.7766113.3461914-4.4692383v-2.0141602c0-.8110352-.0419922-1.5175781-.1259766-2.1191406l1.6787109.8181152h7.5952148c-.1259766-.9929199-.1958008-1.8811035-.2099609-2.6645508,1.230957.0700684,1.8535156.1887207,1.8676758.3566895.0136719.0419922-.0351562.1047363-.1469727.1887207l-.3144531.230957c.0136719.6015625.0556641,1.230957.1254883,1.8881836h4.1337891Zm-13.3027344,11.3723145l.3774414.0209961c.1958008,1.1330566.1328125,2.1018066-.1884766,2.9060059-.3222656.8044434-.7553711,1.3881836-1.3012695,1.7519531-.293457.1816406-.5839844.276123-.8706055.2834473-.2866211.0068359-.5073242-.1018066-.6606445-.3254395-.1679688-.4477539.0136719-.8391113.5454102-1.1748047.5170898-.265625.9824219-.7167969,1.3950195-1.3535156.4125977-.6362305.6469727-1.3391113.703125-2.1086426Zm7.4067383-8.2248535h-4.3852539c-.5317383.013916-1.175293.1188965-1.9306641.3146973l-.5454102-1.1330566c.9511719.1120605,1.9023438.1750488,2.8535156.1887207h2.0981445l.3779297-.5664062c.027832-.0419922.0664062-.0976562.1152344-.1677246s.0874023-.1223145.1157227-.1574707c.027832-.034668.0625-.0734863.1044922-.1154785s.0805664-.0734863.1157227-.0942383c.034668-.0209961.065918-.0314941.0942383-.0314941.1396484,0,.4301758.1992188.8706055.5979004.440918.3986816.6611328.6750488.6611328.8288574-.0561523.223877-.237793.3356934-.5454102.3356934Zm-1.9306641,1.6574707l.2939453-.4406738c.027832-.027832.0595703-.0732422.0942383-.1362305.0351562-.0629883.0664062-.1081543.0947266-.1364746.027832-.027832.0556641-.0629883.0839844-.1049805.027832-.041748.059082-.0698242.0942383-.0837402.034668-.013916.0664062-.0209961.0942383-.0209961.1396484,0,.4301758.1960449.8710938.5874023.4404297.3918457.6606445.6645508.6606445.8183594-.1538086.1818848-.4267578.3078613-.8183594.3776855v1.0700684c.0419922,1.1052246.0771484,1.7766113.1049805,2.0141602-.0561523.1259766-.2202148.244873-.4931641.3566895-.2724609.1123047-.5136719.1679688-.7236328.1679688h-.1889648v-.7763672h-3.1264648v.7973633c0,.0419922-.0488281.0944824-.1464844.1572266-.0981445.0629883-.230957.1259766-.3989258.1889648s-.3354492.0944824-.503418.0944824c-.0839844,0-.1542969-.0454102-.2099609-.1364746-.0561523-.0908203-.0839844-.1921387-.0839844-.3041992.027832-.2099609.0629883-.6782227.1049805-1.4057617v-.9233398c0-1.2167969-.0561523-2.1821289-.1679688-2.8955078l1.5107422.734375h2.8535156Zm-3.1049805,8.329834c0-.7553711-.0493164-1.5107422-.1469727-2.2658691,1.2446289.4057617,1.8740234.6994629,1.8881836.8811035,0,.0561523-.0488281.1191406-.1464844.1889648l-.2939453.2097168v2.9375c0,.1540527.0556641.251709.1679688.2937012.1118164.0419922.3842773.0629883.8183594.0629883h2.6015625c1.1748047,0,1.9858398-.0136719,2.434082-.0419922.2094727,0,.3632812-.0839844.4614258-.251709.1679688-.3635254.3637695-1.1120605.5874023-2.2451172h.2729492l.0419922,2.3291016c.4052734.1257324.6083984.307373.6083984.5454102,0,.3496094-.2871094.5874023-.8603516.7133789-.5737305.1259766-1.7763672.1889648-3.6088867.1889648h-2.706543c-.8813477,0-1.4550781-.0913086-1.7207031-.2729492-.265625-.1818848-.3984375-.5454102-.3984375-1.0910645v-2.1821289Zm3.2729492-5.2453613v-2.434082h-3.1264648v2.434082h3.1264648Zm-.9858398,2.7905273l.1884766-.2307129c1.8325195.3217773,3.0283203.958252,3.5878906,1.9091797.3076172.5319824.3217773.951416.0419922,1.2590332-.2094727.251709-.503418.2800293-.8808594.0839844-.2241211-.5036621-.6264648-1.0456543-1.206543-1.6262207-.5805664-.5803223-1.1577148-1.0454102-1.730957-1.3952637Zm5.4550781-13.0507812l.1679688-.2099609c1.3984375.0839844,2.2587891.454834,2.5805664,1.1120605.1958008.3776855.1469727.6787109-.1469727.9023438-.2236328.1818848-.496582.1818848-.8178711,0-.1259766-.3076172-.3642578-.6293945-.7133789-.9650879-.3500977-.3356934-.706543-.6154785-1.0703125-.8393555Zm1.0703125,13.8481445l.2304688-.2307129c2.0844727.7414551,3.434082,1.7346191,4.0498047,2.979248.3354492.699707.3564453,1.251709.0629883,1.6577148-.2519531.3493652-.6088867.3703613-1.0703125.0629883-.1821289-.7133789-.5947266-1.4863281-1.237793-2.3186035-.6435547-.8320312-1.3217773-1.5490723-2.0351562-2.1506348Z"/>
      <path class="cls-1" d="m23.3735352,37.1699219h.3779297c.2373047,1.2033691.3071289,2.1894531.2094727,2.9584961-.0976562.7695312-.3007812,1.3847656-.6083984,1.8464355-.1679688.2800293-.4023438.458252-.7026367.5351562-.3012695.0769043-.5283203.0244141-.6821289-.1574707-.237793-.3776855-.1538086-.7973633.2519531-1.2587891.3076172-.3496094.5800781-.9055176.8183594-1.6682129.2373047-.762207.3491211-1.513916.3354492-2.2556152Zm1.5317383,9.2741699v-9.3789062c0-1.8044434-.0913086-3.2731934-.2729492-4.40625,1.4267578.4196777,2.1401367.7275391,2.1401367.9230957,0,.0703125-.0625.1469727-.1884766.230957l-.3779297.2307129v12.736084c.027832,1.3569336.0908203,3.0354004.1889648,5.0356445-.0839844.1679688-.2485352.3181152-.4931641.4511719-.2446289.1328125-.4863281.1992188-.7236328.1992188-.1259766,0-.2416992-.0454102-.3461914-.1362305-.1049805-.0913086-.1577148-.1923828-.1577148-.3041992.1259766-1.8464355.2026367-3.7067871.230957-5.5812988Zm1.6577148-9.8615723l.2724609-.1259766c1.2172852.7695312,1.8745117,1.6157227,1.9726562,2.5388184.0698242.5456543-.0703125.9023438-.4199219,1.0700684-.2514648.1259766-.5107422.0561523-.7763672-.2097168-.027832-1.0769043-.3774414-2.1679688-1.0488281-3.2731934Zm10.7006836,7.5324707l.4194336-.6503906c.3217773-.4333496.5249023-.6503906.6088867-.6503906.1254883,0,.4331055.2275391.9228516.6818848.4897461.454834.734375.7590332.734375.9128418-.0419922.2097168-.2236328.3146973-.5454102.3146973h-4.4482422v6.3364258h3.4204102l.4194336-.6293945c.3217773-.4333496.5244141-.6503906.6083984-.6503906.1396484,0,.4619141.223877.965332.6713867s.7553711.7480469.7553711.9020996c-.0419922.2099609-.2172852.3149414-.5249023.3149414h-9.2529297c-1.0351562.0136719-2.1123047.1115723-3.230957.2937012l-.5458984-1.0700684c.7832031.0837402,1.734375.1396484,2.8535156.1677246h3.2104492v-6.3364258h-1.3847656c-.7275391.013916-1.5737305.1188965-2.5390625.3146973l-.5244141-1.1120605c.9511719.1120605,1.9023438.1750488,2.8535156.1887207h1.5947266v-5.2033691h-3.168457c-.6713867,1.6784668-1.4199219,3.0354004-2.2451172,4.0703125l-.3354492-.2097168c.5874023-1.1608887,1.0908203-2.5107422,1.5107422-4.0495605.4750977-1.8601074.6923828-3.427002.6503906-4.6999512,1.3984375.3640137,2.0908203.6367188,2.0771484.8183594,0,.0559082-.0561523.1120605-.1679688.1677246l-.3774414.1889648c-.2099609.9650879-.5107422,1.9863281-.9023438,3.0632324h2.9584961v-1.0280762c0-1.720459-.0981445-3.189209-.2939453-4.40625,1.3989258.4060059,2.0913086.706543,2.0776367.9023438,0,.0559082-.0493164.1188965-.1469727.1887207l-.3149414.2099609v4.1333008h2.8325195l.4619141-.6293945c.3076172-.4196777.503418-.6293945.5874023-.6293945.1396484,0,.4545898.2202148.9443359.6608887.4892578.4406738.734375.7380371.734375.8918457-.0703125.237793-.2451172.3566895-.5249023.3566895h-5.0356445v5.2033691h2.3081055Z"/>
      <path class="cls-1" d="m56.7558594,38.9743652c.6850586-.3493652,1.3530273-.4753418,2.0039062-.3776855.6503906.0981445,1.0942383.4338379,1.3320312,1.0073242.237793.5737305.1538086,1.1259766-.2514648,1.6574707-.5180664.699707-1.434082,1.3220215-2.7490234,1.8674316-.237793.0981445-.7939453.3220215-1.6679688.6713867-.8745117.3498535-1.5629883.6367188-2.0668945.8603516-.0698242.5737305-.0976562,1.220459-.0834961,1.9406738.0136719.7207031.0170898,1.1508789.0102539,1.2905273-.0073242.1398926-.0981445.2905273-.2729492.4511719-.1748047.1608887-.3496094.2307129-.5244141.2097168s-.3217773-.1013184-.4404297-.2412109c-.1191406-.1396484-.1855469-.2797852-.1992188-.4196777-.0141602-.1958008.0556641-1.0559082.2094727-2.5808105-1.1049805.5036621-1.8745117,1.1540527-2.3081055,1.951416-.2797852.5175781-.3950195.9755859-.3461914,1.3742676s.2729492.706543.6713867.9230957c.3989258.217041.8217773.3535156,1.2695312.4091797.9091797.0561523,1.5595703.0666504,1.9516602.0314941.3911133-.034668.9506836-.1362305,1.6782227-.3041992,1.0493164-.237793,1.6503906-.1396484,1.8046875.2937012.0976562.3078613-.0629883.5666504-.4829102.7763672-1.0351562.517334-2.6015625.6643066-4.699707.4406738-1.1049805-.1259766-1.8642578-.3986816-2.2763672-.8183594-.4130859-.4196777-.6435547-.8950195-.6928711-1.4267578-.0488281-.5314941.0595703-1.0942383.3256836-1.6889648.2651367-.5944824.7548828-1.1574707,1.46875-1.689209.4194336-.279541.9785156-.5942383,1.6782227-.9440918.0556641-1.1887207-.0839844-2.0144043-.4194336-2.4758301-.1962891-.2519531-.4755859-.3916016-.8393555-.4196777-.7275391-.0698242-1.671875.6855469-2.8325195,2.2661133-.8115234,1.1328125-1.2797852,1.7451172-1.4057617,1.8359375-.1259766.0910645-.2905273.0874023-.4931641-.010498-.203125-.0979004-.3393555-.230957-.4091797-.3986816-.0703125-.1679688-.0874023-.3811035-.0522461-.6401367.034668-.2585449.0908203-.4333496.1674805-.5244141.0766602-.0908203.2832031-.2902832.6191406-.5979004.8950195-.8112793,1.5244141-1.5385742,1.8881836-2.1821289.7553711-1.3010254,1.3432617-2.6367188,1.7626953-4.0075684-.8393555.223877-1.5527344.2937012-2.1401367.2097168s-1.2241211-.4055176-1.9091797-.9650879c-.0839844-.0839844-.1049805-.1538086-.0629883-.2099609.0419922-.0556641.269043-.0136719.6816406.1259766.4125977.1398926.972168.1855469,1.6787109.1362305.7060547-.0488281,1.3950195-.1918945,2.0668945-.4299316l.0625-.3776855.0629883-.3776855c.0839844-.7272949-.1254883-1.3010254-.6293945-1.7207031-.0839844-.0698242-.1118164-.1640625-.0839844-.2832031.027832-.1186523.1186523-.1782227.2729492-.1782227.1538086,0,.4091797.0385742.765625.1152344.3569336.0771484.5839844.1716309.6821289.2834473.0976562.1818848.1259766.4755859.0839844.8811035.237793.2380371.6503906.3220215,1.237793.251709.0839844-.0698242.262207-.1010742.5351562-.0942383.2729492.0070801.4335938.1015625.4824219.2832031.0488281.1818848-.0385742.3986816-.262207.6503906-.4755859.5178223-1.3637695,1.0002441-2.6645508,1.4477539-.5039062,1.6088867-1.0073242,2.9726562-1.5107422,4.0915527.6293945-.3356934,1.3217773-.3986816,2.0771484-.1889648.3637695.0981445.6748047.3220215.9335938.6716309s.4301758.6713867.5141602.9650879l.1049805.4616699c.8671875-2.0280762,2.0981445-3.447998,3.6928711-4.2595215Zm-5.2456055-3.7976074c-.0419922.2380371-.1123047.4897461-.2099609.7553711.1538086-.0698242.3779297-.2026367.6713867-.3986816-.0419922-.1679688-.1958008-.2866211-.4614258-.3566895Zm1.972168,8.7705078c1.3847656-.6433105,2.3920898-1.1540527,3.0214844-1.5317383s1.1542969-.7763672,1.5737305-1.1960449c.7973633-.8110352,1.0351562-1.4267578.7133789-1.8464355-.3774414-.251709-.8955078-.2480469-1.5527344.010498-.6577148.2590332-1.2485352.6472168-1.7729492,1.1645508-.5244141.5175781-.9233398,1.0070801-1.1958008,1.46875-.2729492.4616699-.5283203,1.0910645-.7661133,1.8884277l-.0209961.0419922Z"/>
      <path class="cls-1" d="m73.7089844,44.8493652c-.0561523-.503418-.175293-.8391113-.3564453-1.0070801-.1821289-.1677246-.5532227-.2866211-1.1123047-.3566895v-.3566895c.8530273.0839844,1.3916016.1259766,1.6157227.1259766.2236328,0,.3354492-.1328125.3354492-.3986816v-3.2312012h-2.7905273v5.4343262c2.1123047.6713867,3.4970703,1.5734863,4.1542969,2.706543.3637695.6296387.4057617,1.1120605.1259766,1.4477539-.2236328.2658691-.5317383.2800293-.9228516.0419922-.2382812-.5874023-.6787109-1.2272949-1.3222656-1.9199219-.6435547-.6923828-1.3217773-1.3039551-2.0351562-1.8356934v2.1191406c.0419922,1.8044434.0908203,3.189209.1469727,4.1542969-.0839844.1679688-.2451172.3217773-.4824219.4616699-.2382812.1396484-.4760742.2097168-.7133789.2097168-.1259766,0-.234375-.0454102-.3251953-.1362305-.0913086-.0910645-.1367188-.1923828-.1367188-.3041992.0976562-1.244873.1606445-2.6018066.1889648-4.0705566v-2.2661133c-1.3989258,2.1821289-3.168457,4.0007324-5.3085938,5.4553223l-.1884766-.3146973c1.1748047-.9931641,2.2587891-2.2414551,3.2519531-3.7453613.9931641-1.503418,1.7416992-3.0737305,2.2451172-4.7104492v-2.7275391h-2.7485352v1.720459c.027832,1.4267578.0698242,2.5529785.1259766,3.3781738-.2519531.3776855-.6435547.5664062-1.175293.5664062-.2236328,0-.3354492-.1469727-.3354492-.4406738.0556641-.503418.0976562-1.1330566.1259766-1.8884277v-1.1748047c0-1.482666-.0703125-2.685791-.2099609-3.6088867l1.7412109.8181152h2.4760742v-2.4128418h-1.6787109c-1.0068359.0141602-2.0493164.1120605-3.1259766.2937012l-.5458984-1.0910645c.7832031.0839844,1.7416992.1401367,2.8745117.1679688h2.4760742c0-1.244873-.0629883-2.3081055-.1889648-3.1894531,1.3427734.4060059,2.0146484.706543,2.0146484.9023438.0136719.0700684-.0419922.1469727-.1679688.2307129l-.3359375.230957v1.8254395h2.6650391l.4404297-.6296387c.3217773-.4333496.5244141-.6503906.6083984-.6503906.1396484,0,.4614258.223877.965332.6713867.503418.447998.7553711.7485352.7553711.9023438-.0561523.223877-.2382812.3356934-.5458984.3356934h-4.8886719v2.4128418h2.6020508l.2724609-.4824219c.1958008-.3076172.3359375-.4616699.4199219-.4616699.1396484,0,.4438477.1923828.9125977.5769043.4682617.3850098.7026367.6540527.7026367.8078613-.1958008.2380371-.496582.3850098-.9018555.4406738v3.1262207c0,.5876465-.1049805,1.0212402-.3149414,1.3010254-.2099609.2800293-.6713867.4616699-1.3847656.5454102Zm3.9238281-1.237793v-4.6789551c0-1.7207031-.0981445-3.1894531-.2939453-4.40625,1.4267578.4057617,2.1401367.7062988,2.1401367.9020996,0,.0703125-.0629883.1401367-.1889648.2099609l-.3774414.2307129v6.5883789c.027832,1.7487793.0839844,3.4272461.1679688,5.0356445-.0839844.1540527-.2451172.2905273-.4829102.4091797-.237793.1188965-.4755859.1782227-.7133789.1782227-.1259766,0-.2275391-.045166-.3041992-.1362305-.0771484-.0908203-.1152344-.1921387-.1152344-.3041992.0839844-1.3146973.1396484-2.6577148.1679688-4.0285645Zm3.7973633,6.609375v-12.7570801c0-1.8044434-.0908203-3.2731934-.2724609-4.40625,1.4267578.4057617,2.1401367.706543,2.1401367.9020996,0,.0703125-.0561523.1401367-.1679688.2099609l-.3774414.2307129v15.9882812c0,.6433105-.1333008,1.1257324-.3989258,1.4477539-.265625.3215332-.8325195.5246582-1.699707.6083984-.0698242-.5175781-.2167969-.8601074-.4404297-1.0280762-.3076172-.2658691-.8671875-.4545898-1.6787109-.5664062v-.3146973c1.3432617.1120605,2.1474609.1677246,2.4130859.1677246.3217773,0,.4824219-.1606445.4824219-.4824219Z"/>
      <path class="cls-1" d="m86.1508789,38.2819824l.1679688-.1887207c1.5385742.2097168,2.4897461.7133789,2.8535156,1.5107422.2236328.4614258.1889648.8322754-.1049805,1.1120605-.2514648.251709-.5737305.2587891-.9648438.0209961-.1259766-.4335938-.3779297-.8776855-.7553711-1.3325195-.3779297-.4543457-.7763672-.8286133-1.1962891-1.1225586Zm.2939453,7.9941406h.8813477c.1259766,0,.2202148-.0241699.2832031-.0732422.0629883-.0488281.1362305-.1711426.2202148-.3671875.4057617-.9511719,1.5454102-3.8466797,3.4199219-8.6867676l.3359375.1049805c-.1679688.5737305-.4511719,1.5285645-.8496094,2.8640137-.3989258,1.3359375-.7382812,2.4726562-1.0175781,3.409668-.2802734.9372559-.4550781,1.5456543-.5249023,1.8254395-.2094727.8112793-.3076172,1.4199219-.293457,1.8254395,0,.2097168.0908203.723877.2724609,1.5422363.1816406.8181152.2587891,1.5629883.230957,2.2346191-.0419922.9929199-.4057617,1.489502-1.0913086,1.489502-.3637695,0-.5595703-.3637695-.5874023-1.0910645.1259766-1.1047363.1645508-2.0593262.1157227-2.8640137-.0493164-.8041992-.1787109-1.276123-.3881836-1.4162598-.1962891-.1538086-.5317383-.265625-1.0073242-.3356934v-.4616699Zm1.1123047-13.0507812l.2094727-.1887207c1.6367188.2800293,2.6650391.8464355,3.0844727,1.6994629.2236328.4758301.1958008.8535156-.0839844,1.1330566-.2519531.251709-.5737305.2590332-.965332.0209961-.1674805-.4333496-.46875-.8986816-.9018555-1.3952637-.434082-.4963379-.8813477-.9196777-1.3427734-1.2695312Zm9.0639648,10.763916l.4194336-.5876465c.0283203-.0419922.0703125-.1013184.1259766-.1782227.0556641-.0766602.1015625-.1328125.1367188-.1679688.034668-.034668.0732422-.0766602.1152344-.1257324s.0800781-.0839844.1152344-.1049805c.034668-.0209961.0664062-.0314941.0947266-.0314941.1396484,0,.4404297.2097168.9018555.6293945.4619141.4196777.6928711.706543.6928711.8603516-.0419922.2097168-.2241211.3146973-.5458984.3146973h-4.3012695c-.0419922.5595703-.1049805,1.0910645-.1889648,1.5947266h1.9936523l.3144531-.3986816c.237793-.265625.3916016-.3986816.4619141-.3986816.1396484,0,.4091797.1677246.8076172.503418s.5981445.5808105.5981445.734375c-.1259766.1542969-.3852539.2590332-.7763672.3149414-.1259766,2.7836914-.5039062,4.440918-1.1333008,4.9726562-.4755859.3635254-1.0419922.5454102-1.6992188.5454102,0-.4614258-.0913086-.7624512-.2729492-.9020996-.237793-.1960449-.6713867-.3430176-1.3007812-.4406738v-.3566895c1.1328125.0839844,1.7553711.1259766,1.8671875.1259766.2939453,0,.496582-.0561523.6083984-.1679688.3496094-.279541.5947266-1.5874023.734375-3.923584h-2.3076172c-.2661133,1.3149414-.7104492,2.4306641-1.3325195,3.3466797-.6225586.9160156-1.5214844,1.7099609-2.6962891,2.3813477l-.1679688-.3356934c1.1469727-.9372559,1.9443359-1.996582,2.3920898-3.1787109.4477539-1.1818848.6923828-2.6542969.734375-4.416748h-.8603516c-.4755859.0141602-.9648438.1120605-1.46875.2937012l-.5244141-1.0700684c.6992188.0839844,1.5454102.1401367,2.5385742.1679688h1.175293c0-.8671875-.0419922-1.6293945-.1259766-2.2871094,1.2446289.3918457,1.8745117.6855469,1.8881836.8813477,0,.0559082-.0556641.1257324-.1674805.2097168l-.3569336.2097168v.9863281h1.5107422Zm-.3354492-8.560791l.293457-.4616699c.2236328-.307373.3779297-.4614258.4614258-.4614258.1401367,0,.4233398.1855469.8500977.5559082.4262695.3708496.6396484.6330566.6396484.7868652-.1674805.1960449-.4545898.3356934-.8598633.4196777v1.8464355c.027832,1.4968262.0698242,2.6855469.1254883,3.5668945-.0698242.1120605-.2304688.2275391-.4824219.3461914-.2519531.1191406-.4755859.1784668-.6713867.1784668h-.1469727v-.7553711h-3.4619141v.6923828c0,.0700684-.1123047.1608887-.3359375.2727051-.2236328.1120605-.4614258.1679688-.7133789.1679688-.0834961,0-.1572266-.0454102-.2202148-.1364746-.0629883-.0908203-.0942383-.1921387-.0942383-.3041992.0698242-.8530273.1186523-1.5737305.1469727-2.1611328v-1.3220215c0-1.496582-.0913086-2.8251953-.2729492-3.9865723l1.5947266.7553711h.6713867c.1396484-.9790039.1748047-1.8952637.1049805-2.7485352,1.3144531.2097168,1.9648438.4057617,1.9511719.5874023,0,.0561523-.0561523.1191406-.1679688.1889648l-.3564453.2097168c-.0283203.0561523-.3427734.6435547-.9443359,1.7624512h1.8886719Zm.2094727,2.685791v-2.0773926h-3.4619141v2.0773926h3.4619141Zm-3.4619141.6293945v2.0771484h3.4619141v-2.0771484h-3.4619141Zm9.6938477-1.4477539l.4194336-.6503906c.027832-.0419922.0698242-.1013184.1259766-.1784668.0556641-.0766602.1010742-.1396484.1362305-.1887207.034668-.0488281.0737305-.0976562.1157227-.1469727.0419922-.0488281.0800781-.0839844.1152344-.1047363.034668-.0209961.0664062-.0314941.0942383-.0314941.1396484,0,.4511719.2202148.934082.6608887.4824219.4406738.7236328.7380371.7236328.8916016-.0419922.2380371-.2167969.3566895-.5244141.3566895h-1.0493164c-.1816406,4.0427246-.7905273,7.1130371-1.8251953,9.2111816.8950195,1.7624512,2.0981445,3.1262207,3.6088867,4.0915527l-.0629883.2307129c-.6435547.0839844-1.0634766.4265137-1.2587891,1.0280762-1.2314453-1.0351562-2.2241211-2.4128418-2.9794922-4.1333008-1.0214844,1.5944824-2.4833984,2.9584961-4.3852539,4.0915527l-.2099609-.2729492c1.8603516-1.4545898,3.2314453-3.1472168,4.1123047-5.0776367-.6713867-1.986084-1.1049805-4.3081055-1.3007812-6.9660645-.4057617.8955078-.8813477,1.713623-1.4267578,2.4550781l-.3564453-.1889648c.6713867-1.4545898,1.2167969-3.1262207,1.6362305-5.0146484.3916016-1.8183594.5385742-3.3781738.440918-4.6789551,1.4404297.2800293,2.1611328.5107422,2.1611328.6923828,0,.0559082-.0561523.1188965-.1679688.1887207l-.3779297.1889648c-.2236328,1.1889648-.5107422,2.3708496-.8598633,3.5458984h2.1611328Zm-.2729492.6083984h-2.0771484c-.2382812.6855469-.4057617,1.1472168-.503418,1.3850098.293457,2.5178223.7832031,4.657959,1.46875,6.4204102.6713867-1.9020996,1.0415039-4.5039062,1.1118164-7.8054199Z"/>
      <path class="cls-1" d="m117.4770508,37.6315918l-.0629883-1.7414551c-.0561523-.9091797-.3496094-1.503418-.8813477-1.7834473-.1816406-.0976562-.2724609-.1889648-.2724609-.2727051.0136719-.1259766.1044922-.2167969.2724609-.2729492.3916016-.1257324.8291016-.0803223,1.3115234.1364746.4824219.217041.7724609.5002441.8706055.8498535.027832.1677246,0,.4194336-.0839844.7553711,1.3847656.8391113,2.4057617,1.3532715,3.0634766,1.5419922.6572266.1889648,1.2832031.3078613,1.8779297.3566895.5942383.0493164.9545898.0876465,1.0805664.1154785.1259766.0280762.2587891.0629883.3989258.1049805.1396484.0419922.2651367.1293945.3774414.262207.1118164.1330566.1538086.2905273.1259766.472168-.0419922.3916016-.4545898.5317383-1.237793.4196777-2.1542969-.3359375-4.1337891-.4125977-5.9379883-.230957-.0561523,1.7907715-.0771484,3.0844727-.0629883,3.8818359.4472656.8254395.6572266,2.1191406.6293945,3.8815918-.0141602.7973633-.1679688,1.5317383-.4614258,2.203125-.2939453.6713867-.6225586,1.203125-.9863281,1.5944824-.3637695.3918457-.7939453.744873-1.2905273,1.0598145-.496582.3146973-.8637695.517334-1.1015625.6083984-.237793.0908203-.4477539.1711426-.6293945.2412109-.1821289.0698242-.2939453.0698242-.3354492,0-.0419922-.1120605.0205078-.2097168.1884766-.2937012.6157227-.2658691,1.1572266-.6225586,1.6264648-1.0700684.4682617-.4475098.8212891-.8881836,1.0595703-1.3217773.4614258-.8671875.7270508-1.5947266.796875-2.1821289l.0419922-.3776855c-.0834961.1540527-.265625.3286133-.5454102.5244141-.2797852.1960449-.5385742.2868652-.7763672.2727051-.6435547,0-1.203125-.4963379-1.6782227-1.4897461-.0141602-.041748-.0668945-.1501465-.1577148-.3251953-.0908203-.1745605-.1923828-.3881836-.3041992-.6398926s-.1992188-.6223145-.262207-1.1120605c-.0629883-.489502.0454102-1.0175781.3251953-1.5839844.2797852-.5666504.7973633-.9265137,1.5527344-1.0808105.53125-.1257324,1-.0837402,1.4057617.1259766.0698242-.5593262.0976562-1.496582.0839844-2.8115234-1.440918.2097168-2.6020508.4897461-3.4829102.8393555-.2241211.0837402-.3642578.1398926-.4199219.1677246l-1.0908203.482666c-.0981445.0419922-.1679688.0734863-.2099609.0944824-.0419922.020752-.1191406.0522461-.230957.0942383s-.2026367.0703125-.2724609.0839844c-.0703125.0141602-.1713867.0351562-.3041992.0629883-.1333008.0280762-.2451172.0456543-.3359375.0524902-.0913086.0070801-.1992188.010498-.3251953.010498s-.2446289-.013916-.3564453-.0419922c-.6435547-.1679688-1.2456055-.5734863-1.8046875-1.217041-.1958008-.1958008-.2451172-.3493652-.1469727-.4616699.1118164-.0556641.1958008-.0766602.2519531-.0627441.0556641.013916.1748047.0522461.3564453.1152344s.5209961.1123047,1.0180664.1469727c.4960938.0351562,1.2866211-.0661621,2.3706055-.3041992,1.0839844-.237793,2.7382812-.5314941,4.9624023-.8813477Zm-.965332,8.0991211c.5595703,0,.8251953-.6154785.7973633-1.8464355-.0141602-.6992188-.1191406-1.234375-.3144531-1.6052246-.1962891-.3703613-.4443359-.5454102-.7451172-.5244141s-.6538086.1992188-1.0595703.5349121-.5317383.8220215-.3774414,1.458252c.1533203.6367188.3842773,1.1262207.6923828,1.46875.3071289.3430176.6430664.5141602,1.0068359.5141602Zm1.909668-8.2250977c.7553711-.0976562,1.3007812-.1467285,1.6362305-.1467285.3359375,0,.5141602-.034668.5351562-.1049805.0209961-.0698242-.0561523-.1643066-.230957-.2832031-.1748047-.1186523-.7797852-.5561523-1.8149414-1.3112793-.0415039.2797852-.0834961.8952637-.1254883,1.8461914Z"/>
      <path class="cls-1" d="m137.7875977,47.3881836c.2651367,0,.559082.0493164.8808594.1469727.3217773.0979004.6611328.3393555,1.0175781.723877.3569336.3847656.5771484.7939453.6611328,1.2275391v.0627441l.0839844-.0209961c.7412109-.2653809,1.3393555-.7375488,1.7939453-1.4162598.4545898-.6782227.6992188-1.3774414.734375-2.0981445.034668-.7202148-.1713867-1.3984375-.6191406-2.0351562-.4477539-.6364746-1.1118164-1.0456543-1.9931641-1.2275391-.3496094-.0839844-.7207031-.1259766-1.1118164-.1259766-1.7768555-.027832-3.4135742,1.217041-4.9101562,3.7348633-.4194336.6713867-.6787109,1.0490723-.7763672,1.1330566s-.2587891.1259766-.4824219.1259766c-.2241211,0-.3847656-.0769043-.4824219-.230957-.3222656-.4614258-.1401367-1.1120605.5454102-1.9511719.1816406-.2236328.3984375-.489502.6503906-.7973633.2519531-.3076172.4370117-.5419922.5561523-.7028809.1186523-.1606445.1918945-.248291.2202148-.262207,1.1611328-1.454834,2.6435547-3.6369629,4.4482422-6.5463867l.0419922-.0839844c.4052734-.6296387.4750977-1.0629883.2099609-1.3010254l-.0419922-.0209961c-.2519531-.251709-.5249023-.1606445-.8183594.2729492-.2939453.4335938-.6577148.8532715-1.0913086,1.2587891-.4335938.4060059-.7695312.6577148-1.0068359.7553711-.2382812.0981445-.4829102.1469727-.734375.1469727-.2519531,0-.5073242-.1013184-.7661133-.3041992-.2587891-.2026367-.4511719-.5698242-.5771484-1.1015625-.027832-.1259766-.0415039-.3076172-.0415039-.5456543.1113281-.0556641.2304688.010498.3564453.1992188.1259766.1889648.3359375.2834473.6293945.2834473.503418,0,1.3359375-.4685059,2.4970703-1.4057617.53125-.4335938,1.1992188-.5803223,2.003418-.4406738.8041992.1398926,1.2939453.4406738,1.46875.9020996.1748047.4616699.0664062.9023438-.3251953,1.3220215-.237793.2658691-1.0419922,1.237793-2.4125977,2.9165039-1.3710938,1.6784668-2.1401367,2.6645508-2.3081055,2.9584961l-.1049805.2097168.2099609-.1469727c1.2167969-.7133789,2.3500977-1.0559082,3.3989258-1.0280762.4335938,0,.8251953.0493164,1.1748047.1469727,1.6787109.3217773,2.7700195,1.1821289,3.2734375,2.5808105.3496094.9650879.3530273,1.9375.0102539,2.9165039-.3427734.979248-.9477539,1.7277832-1.8149414,2.2451172-1.9301758,1.1608887-3.7416992,1.3427734-5.434082.5454102-.5454102-.3076172-.8496094-.7097168-.9125977-1.206543-.0629883-.4963379.0908203-.9265137.4614258-1.2902832.3706055-.3635254.8496094-.5383301,1.4375-.5246582Zm-.8183594,2.0354004c.1118164.1398926.3530273.2658691.7236328.3776855.3706055.1120605.6889648.1713867.9545898.1782227.265625.0073242.4160156-.0136719.4511719-.0629883.034668-.0488281.0454102-.0871582.0317383-.1152344-.2661133-.9931641-.7905273-1.4897461-1.5737305-1.4897461-.503418.0141602-.7553711.2800293-.7553711.7973633,0,.0700684.0556641.1750488.1679688.3146973Z"/>
      <path class="cls-1" d="m167.0361328,43.9262695l.3984375-.5666504c.027832-.041748.0698242-.1013184.1259766-.1782227.0556641-.0766602.1015625-.1328125.1362305-.1679688.0351562-.034668.0737305-.0766602.1157227-.1257324.0419922-.0488281.0800781-.0839844.1152344-.1049805.034668-.0209961.0664062-.0314941.0947266-.0314941.1396484,0,.4580078.206543.9545898.6188965.4960938.4128418.7446289.6960449.7446289.8498535-.0561523.2097168-.237793.3146973-.5454102.3146973h-5.6860352c.7553711.6015625,1.7202148,1.1403809,2.8955078,1.6157227,1.1748047.4755859,2.3500977.8391113,3.5249023,1.0910645l-.0209961.2307129c-.503418.0981445-.8466797.4897461-1.0283203,1.1750488-1.2871094-.4753418-2.4199219-1.0419922-3.3989258-1.6994629v1.6784668c.027832,1.3427734.0698242,2.4057617.1259766,3.189209-.0703125.1259766-.2451172.255127-.5244141.3881836-.2802734.1328125-.5180664.1994629-.7133789.1994629h-.230957v-1.0700684h-7.7631836v.6503906c0,.0419922-.0419922.1013184-.1259766.1782227-.0839844.0766602-.2172852.1501465-.3989258.220459-.1816406.0698242-.3706055.1047363-.5664062.1047363-.0981445,0-.1855469-.0454102-.262207-.1362305-.0771484-.0913086-.1152344-.192627-.1152344-.3041992.0834961-1.1193848.1396484-2.2312012.1674805-3.3361816v-1.9094238c-1.3149414.9650879-2.699707,1.713623-4.1542969,2.2451172l-.2099609-.3146973c2.0844727-1.0490723,3.8676758-2.4477539,5.3505859-4.1965332h-1.7207031c-1.0068359.0141602-2.0771484.1120605-3.2099609.2937012l-.5664062-1.0700684c.7832031.0839844,1.7338867.1401367,2.8535156.1679688h3.1469727c.5175781-.7133789.8603516-1.223877,1.0283203-1.5317383h-1.9091797v.3776855c0,.0700684-.1230469.1608887-.3671875.2727051-.2451172.1123047-.5004883.1679688-.7661133.1679688-.2241211,0-.3354492-.1469727-.3354492-.4406738.027832-.237793.0625-.8320312.1044922-1.7834473v-1.1120605c0-1.4125977-.0698242-2.5598145-.2094727-3.4411621l1.6992188.7973633h8.6865234l.2939453-.4196777c.237793-.2653809.3984375-.3986816.4824219-.3986816.1396484,0,.4228516.1679688.8500977.5036621.4262695.3356934.6396484.5805664.6396484.734375-.1259766.1818848-.3774414.3078613-.7553711.3776855v1.5527344c.027832.9372559.0766602,1.9375.1469727,3.0004883-.0703125.1257324-.2446289.251709-.5244141.3774414-.2802734.1259766-.5317383.1889648-.7553711.1889648h-.2099609v-.7553711h-4.699707c-.0839844.2097168-.3779297.3146973-.8813477.3146973-.2382812.3356934-.5527344.7416992-.9443359,1.217041h8.9174805Zm-.1889648-9.1062012l.4619141-.6293945c.3212891-.4057617.5244141-.6086426.6083984-.6086426.1396484,0,.4472656.2133789.9228516.6398926.4755859.427002.7133789.717041.7133789.8708496-.027832.2380371-.2026367.3566895-.5244141.3566895h-5.3500977v1.0700684c0,.0419922-.0458984.0876465-.1367188.1364746-.0908203.0490723-.2236328.0979004-.3984375.1467285-.175293.0493164-.3671875.0734863-.5771484.0734863s-.3149414-.1396484-.3149414-.4196777c.0141602-.0556641.0244141-.1047363.0317383-.1467285.0068359-.0419922.0136719-.0976562.0209961-.1679688.0068359-.0698242.0170898-.1396484.03125-.2097168v-.482666h-4.3222656v.3776855c.0136719.0981445.0244141.1960449.0317383.2937012.0068359.0981445.0102539.1750488.0102539.230957s.0068359.1047363.0209961.1467285c-.0283203.1259766-.1645508.234375-.4091797.3251953-.2446289.0913086-.5068359.1364746-.7866211.1364746-.1821289,0-.2729492-.1469727-.2729492-.4406738.0136719-.0556641.0244141-.1081543.0317383-.1572266.0068359-.0488281.0136719-.1118164.0209961-.1889648.0068359-.0766602.0170898-.1501465.03125-.2202148v-.5036621h-2.2451172c-1.0351562.0141602-2.1123047.1120605-3.230957.2937012l-.5249023-1.0910645c.7832031.0839844,1.7416992.1401367,2.8745117.1679688h3.1264648c0-.8251953-.0419922-1.5385742-.1259766-2.1401367,1.3149414.3916016,1.9726562.6855469,1.9726562.8811035,0,.0703125-.0561523.1401367-.1679688.2099609l-.3569336.2307129v.8183594h4.3222656c0-.8251953-.0419922-1.5385742-.1254883-2.1401367,1.3286133.3916016,2,.6855469,2.0141602.8811035,0,.0561523-.0629883.1259766-.1889648.2099609l-.3564453.2307129v.8183594h3.1679688Zm-2.203125,4.657959v-1.6157227h-8.9799805v1.6157227h8.9799805Zm0,.6503906h-8.9799805v1.6157227h8.9799805v-1.6157227Zm-8.4975586,5.7910156l.4614258.2099609h7.4067383l.1259766-.1469727c-.5595703-.489502-1.0004883-.9719238-1.3217773-1.4477539h-5.2456055c-.4614258.5317383-.9375.9934082-1.4267578,1.3847656Zm.2099609,2.4760742h7.7631836v-1.6577148h-7.7631836v1.6577148Zm0,.6503906v1.6574707h7.7631836v-1.6574707h-7.7631836Z"/>
      <path class="cls-1" d="m184.9335938,43.0449219c.9511719.2800293,1.6503906.7868652,2.0981445,1.5212402.4472656.734375.6152344,1.5842285.503418,2.5493164-.1118164,1.1052246-.8217773,2.0283203-2.1293945,2.7695312-1.3081055.7416992-3.4379883,1.3010254-6.3891602,1.6787109-.2241211.027832-.3359375-.0209961-.3359375-.1469727-.0136719-.0700684.0209961-.1225586.1049805-.1572266.0839844-.0351562.2026367-.0598145.3569336-.0734863,4.0703125-.6713867,6.3642578-2.0632324,6.8818359-4.1755371.0976562-.4753418.1118164-.9787598.0419922-1.510498-.1396484-1.0351562-.6186523-1.6608887-1.4370117-1.8779297-.8183594-.2167969-1.5458984-.0769043-2.1821289.4196777-.6367188.496582-1.3676758,1.3532715-2.1928711,2.5700684-.1259766.1960449-.3144531.3745117-.5664062.5351562-.2519531.1608887-.4477539.2412109-.5874023.2412109-.3081055-.0136719-.6503906-.1047363-1.0283203-.2727051-.5737305-.2375488-.8881836-.7202148-.9438477-1.4477539-.0703125-1.0349121.0415039-3.0351562.3354492-6.0007324.0136719-.237793-.0102539-.5351562-.0732422-.8918457s-.0600586-.6538086.0102539-.8918457c.0698242-.2375488.265625-.4892578.5874023-.755127.3217773-.265625.6923828-.5,1.1123047-.703125.4194336-.2023926.8076172-.3808594,1.1645508-.5349121.3564453-.1538086.5488281-.2446289.5766602-.2727051.237793-.1958008.2729492-.3986816.1049805-.6086426-.2797852-.3635254-.6083984-.6362305-.9858398-.8181152-.1962891-.1259766-.2939453-.2026367-.2939453-.230957.0136719-.0419922.1049805-.0734863.2729492-.0944824.1674805-.020752.293457-.0241699.3774414-.010498,1.3847656,0,2.2797852.5947266,2.6855469,1.7836914.1679688.4477539.0839844.8254395-.2514648,1.1328125-.1123047.0981445-.2172852.1574707-.3149414.1784668-.0981445.0209961-.2587891-.0383301-.4824219-.1784668-.3916016-.307373-.8393555-.4370117-1.3427734-.3879395-.5039062.0490723-1.1264648.3112793-1.8676758.7866211-.265625.1679688-.4404297.454834-.5244141.8603516-.0283203.1259766.034668.3325195.1889648.6188965.1538086.2868652.2167969.5981445.1889648.9338379,0,.0141602-.0771484.5664062-.230957,1.6574707-.1542969,1.0910645-.230957,1.916748-.230957,2.4758301,0,.5598145.0698242.9897461.2099609,1.2905273.1396484.3010254.3007812.458252.4824219.472168s.3989258-.0839844.6503906-.2939453c.2519531-.2097168.5317383-.4160156.8393555-.6188965.3076172-.2026367.7412109-.4648438,1.3007812-.7868652.5595703-.3215332,1.1401367-.5593262,1.7416992-.7133789.6010742-.1538086,1.1259766-.1606445,1.5737305-.0209961Z"/>
      <path class="cls-1" d="m206.0307617,49.8117676c-1.5600586.7902832-3.0737305,1.03125-4.5424805.723877-1.0776367-.237793-1.8959961-.723877-2.4550781-1.458252-.5595703-.734375-.8569336-1.9057617-.8916016-3.5146484-.0351562-1.6083984.0380859-3.3464355.2202148-5.2138672.1816406-1.8674316.2412109-3.1647949.1782227-3.892334-.0629883-.7270508-.2202148-1.1958008-.472168-1.4057617-.0839844-.0698242-.2094727-.1538086-.3774414-.251709-.1401367-.1118164-.1821289-.2099609-.1259766-.2937012.0556641-.0839844.1469727-.1328125.2729492-.1469727.4052734-.0556641.8076172.0073242,1.2060547.1889648.3989258.1818848.6748047.5280762.8291016,1.0385742.1538086.5107422.2026367.996582.1469727,1.458252l-.1679688,1.5317383c-.0141602.1818848-.0561523.5874023-.1259766,1.2167969-.0703125.6293945-.1123047,1.0317383-.1259766,1.206543-.0141602.1750488-.0454102.5107422-.0942383,1.0070801-.0493164.4968262-.0771484.8603516-.0839844,1.0910645-.0073242.2307129-.0209961.5385742-.0419922.9233398s-.0244141.734375-.0107422,1.0490723c.0141602.3146973.0283203.6398926.0419922.9755859.0698242,1.1611328.3217773,1.954834.7553711,2.3813477.4335938.427002,1.1123047.723877,2.0356445.8918457,2.0561523.4196777,4.6503906-.5874023,7.7841797-3.0214844.265625-.1955566.4262695-.262207.4824219-.1992188.0556641.0629883-.027832.2202148-.2514648.472168-1.2314453,1.3708496-2.6264648,2.451416-4.1860352,3.2416992Z"/>
      <path class="cls-1" d="m216.0810547,47.2834473c.5522461-.5456543,1.2202148-.8183594,2.003418-.8183594s1.4443359.2727051,1.9829102.8183594c.5385742.5454102.8076172,1.203125.8076172,1.972168,0,.7836914-.269043,1.4477539-.8076172,1.9934082-.5385742.5454102-1.199707.8181152-1.9829102.8181152s-1.4511719-.2727051-2.003418-.8181152c-.5527344-.5456543-.8291016-1.2097168-.8291016-1.9934082,0-.769043.2763672-1.4267578.8291016-1.972168Zm.3984375,3.5878906c.4545898.4475098.9892578.6713867,1.6049805.6713867s1.1469727-.223877,1.5947266-.6713867.6713867-.9863281.6713867-1.6157227c0-.6152344-.2236328-1.1435547-.6713867-1.5839844-.4477539-.4406738-.9790039-.6611328-1.5947266-.6611328s-1.1503906.220459-1.6049805.6611328c-.4545898.4404297-.6821289.96875-.6821289,1.5839844,0,.6293945.2275391,1.1682129.6821289,1.6157227Z"/>
    </g>
  </g>
</svg>