<?xml version="1.0" encoding="UTF-8"?>
<svg id="_レイヤー_2" data-name="レイヤー 2" xmlns="http://www.w3.org/2000/svg" viewBox="0 0 242 61.6193848">
  <defs>
    <style>
      .cls-1, .cls-2 {
        stroke-width: 0px;
      }

      .cls-2 {
        opacity: 0;
      }
    </style>
  </defs>
  <g id="_レイヤー_1-2" data-name="レイヤー 1">
    <rect class="cls-2" y=".6193848" width="242" height="61"/>
    <g>
      <path class="cls-1" d="m25.5976562,60.8508301H.8632812V.6723633h9.0776367v51.1494141h15.6567383v9.0290527Z"/>
      <path class="cls-1" d="m40.9179688,60.8508301h-9.0776367V.6723633h9.0776367v60.1784668Z"/>
      <path class="cls-1" d="m57.9199219,60.8508301L47.1621094.6723633h9.5136719l7.5546875,46.9086914L71.8378906.6723633h9.5195312l-10.9511719,60.1784668h-12.4863281Z"/>
      <path class="cls-1" d="m96.6777344,60.8508301h-9.0771484V.6723633h9.0771484v60.1784668Z"/>
      <path class="cls-1" d="m113.1113281.6242676l12.0458984,40.4760742V.6242676h9.0771484v60.2265625h-9.7490234l-12.4873047-38.5661621v38.5661621h-9.0771484V.6242676h10.1904297Z"/>
      <path class="cls-1" d="m154.8857422,61.6193848c-4.0029297,0-7.4042969-1.4086914-10.2060547-4.2265625-2.8017578-2.8171387-4.2021484-6.1955566-4.2021484-10.1337891V14.4082031c0-4.0019531,1.4082031-7.4038086,4.2265625-10.2058105,2.8164062-2.8012695,6.2109375-4.2023926,10.1816406-4.2023926,4.0019531,0,7.3955078,1.4094238,10.1816406,4.2263184,2.7851562,2.8178711,4.1787109,6.2121582,4.1787109,10.1818848v6.8679199h-9.4140625v-7.0600586c0-1.4406738-.5126953-2.6728516-1.5361328-3.697998-1.0253906-1.0244141-2.2578125-1.5368652-3.6982422-1.5368652-1.4414062,0-2.6660156.5124512-3.6748047,1.5368652-1.0078125,1.0251465-1.5126953,2.2573242-1.5126953,3.697998v32.9470215c0,1.4406738.5048828,2.6655273,1.5126953,3.6740723,1.0087891,1.0085449,2.2333984,1.5126953,3.6748047,1.5126953,1.4404297,0,2.6728516-.5026855,3.6982422-1.5083008,1.0234375-1.0056152,1.5361328-2.2272949,1.5361328-3.6643066v-11.8291016h-5.0429688v-9.1252441h14.4570312v21.0361328c0,4.0029297-1.4101562,7.3962402-4.2265625,10.1818848-2.8183594,2.7856445-6.1953125,4.1784668-10.1337891,4.1784668Z"/>
    </g>
  </g>
</svg>