<?xml version="1.0" encoding="UTF-8"?>
<svg id="_レイヤー_2" data-name="レイヤー 2" xmlns="http://www.w3.org/2000/svg" viewBox="0 0 218 185">
  <defs>
    <style>
      .cls-1 {
        fill: red;
      }

      .cls-1, .cls-2 {
        stroke-width: 0px;
      }

      .cls-2 {
        fill: none;
      }
    </style>
  </defs>
  <g id="_レイヤー_1-2" data-name="レイヤー 1">
    <rect class="cls-2" width="218" height="185"/>
    <g>
      <path class="cls-1" d="m80.6875,179.7226562v5.0712891H1.78125v-5.0712891h6.4912109c3.2451172,0,6.1162109-.234375,8.6201172-.7099609,2.5009766-.472168,4.5644531-1.6225586,6.1875-3.4482422,1.6220703-1.8256836,2.8710938-4.5957031,3.7519531-8.3164062.8779297-3.7177734,1.3183594-8.7539062,1.3183594-15.1118164V33.0673828c0-4.1899414-.1005859-7.6733398-.3037109-10.4462891-.203125-2.7700195-.5419922-5.0361328-1.0146484-6.7954102-.4755859-1.7558594-1.1855469-3.144043-2.1298828-4.1582031-.9472656-1.0141602-2.2314453-1.9936523-3.8535156-2.9414062-4.0566406-2.1611328-8.25-3.2451172-12.5761719-3.2451172H1.78125V.409668h78.90625v5.0712891h-6.4912109c-3.2460938,0-6.1201172.2724609-8.6210938.8110352-2.5039062.5419922-4.5634766,1.7241211-6.1865234,3.5498047s-2.875,4.5991211-3.7529297,8.3168945c-.8808594,3.7207031-1.3183594,8.6904297-1.3183594,14.9086914v119.0688477c0,4.3295898.0664062,7.8442383.203125,10.5478516.1328125,2.706543.4716797,4.9379883,1.0136719,6.6938477.5390625,1.7587891,1.3193359,3.144043,2.3330078,4.1582031,1.0146484,1.0141602,2.3330078,1.996582,3.9550781,2.9414062,3.7851562,2.1645508,7.9111328,3.2451172,12.3740234,3.2451172h6.4912109Z"/>
      <path class="cls-1" d="m148.4609375,179.7226562v5.0712891h-78.90625v-5.0712891h6.4912109c3.2460938,0,6.1171875-.234375,8.6210938-.7099609,2.5009766-.472168,4.5634766-1.6225586,6.1865234-3.4482422s2.8720703-4.5957031,3.7529297-8.3164062c.8779297-3.7177734,1.3183594-8.7539062,1.3183594-15.1118164V33.0673828c0-4.1899414-.1015625-7.6733398-.3046875-10.4462891-.2021484-2.7700195-.5419922-5.0361328-1.0136719-6.7954102-.4755859-1.7558594-1.1855469-3.144043-2.1298828-4.1582031-.9482422-1.0141602-2.2314453-1.9936523-3.8544922-2.9414062-4.0566406-2.1611328-8.25-3.2451172-12.5761719-3.2451172h-6.4912109V.409668h78.90625v5.0712891h-6.4912109c-3.2451172,0-6.1201172.2724609-8.6201172.8110352-2.5039062.5419922-4.5644531,1.7241211-6.1875,3.5498047-1.6220703,1.8256836-2.8740234,4.5991211-3.7519531,8.3168945-.8808594,3.7207031-1.3183594,8.6904297-1.3183594,14.9086914v119.0688477c0,4.3295898.0664062,7.8442383.2021484,10.5478516.1337891,2.706543.4726562,4.9379883,1.0146484,6.6938477.5390625,1.7587891,1.3183594,3.144043,2.3330078,4.1582031,1.0136719,1.0141602,2.3320312,1.996582,3.9550781,2.9414062,3.7841797,2.1645508,7.9111328,3.2451172,12.3730469,3.2451172h6.4912109Z"/>
      <path class="cls-1" d="m216.2353516,179.7226562v5.0712891h-78.90625v-5.0712891h6.4912109c3.2451172,0,6.1162109-.234375,8.6201172-.7099609,2.5009766-.472168,4.5644531-1.6225586,6.1875-3.4482422,1.6220703-1.8256836,2.8710938-4.5957031,3.7519531-8.3164062.8779297-3.7177734,1.3183594-8.7539062,1.3183594-15.1118164V33.0673828c0-4.1899414-.1005859-7.6733398-.3037109-10.4462891-.203125-2.7700195-.5419922-5.0361328-1.0146484-6.7954102-.4755859-1.7558594-1.1855469-3.144043-2.1298828-4.1582031-.9472656-1.0141602-2.2314453-1.9936523-3.8535156-2.9414062-4.0566406-2.1611328-8.25-3.2451172-12.5761719-3.2451172h-6.4912109V.409668h78.90625v5.0712891h-6.4912109c-3.2460938,0-6.1201172.2724609-8.6210938.8110352-2.5039062.5419922-4.5634766,1.7241211-6.1865234,3.5498047s-2.875,4.5991211-3.7529297,8.3168945c-.8808594,3.7207031-1.3183594,8.6904297-1.3183594,14.9086914v119.0688477c0,4.3295898.0664062,7.8442383.203125,10.5478516.1328125,2.706543.4716797,4.9379883,1.0136719,6.6938477.5390625,1.7587891,1.3193359,3.144043,2.3330078,4.1582031,1.0146484,1.0141602,2.3330078,1.996582,3.9550781,2.9414062,3.7851562,2.1645508,7.9111328,3.2451172,12.3740234,3.2451172h6.4912109Z"/>
    </g>
  </g>
</svg>