<?xml version="1.0" encoding="UTF-8"?>
<svg id="_レイヤー_2" data-name="レイヤー 2" xmlns="http://www.w3.org/2000/svg" viewBox="0 0 242 61.6672363">
  <defs>
    <style>
      .cls-1, .cls-2 {
        stroke-width: 0px;
      }

      .cls-2 {
        opacity: 0;
      }
    </style>
  </defs>
  <g id="_レイヤー_1-2" data-name="レイヤー 1">
    <rect class="cls-2" y=".6672363" width="242" height="61"/>
    <g>
      <path class="cls-1" d="m10.5170898,9.8935547H.8632812V.7683105h28.3364258v9.1252441h-9.6054688v51.0532227h-9.0771484V9.8935547Z"/>
      <path class="cls-1" d="m49.8027344,0c4.0019531,0,7.4042969,1.4091797,10.2050781,4.2263184,2.8027344,2.8178711,4.203125,6.2121582,4.203125,10.1818848v32.8508301c0,4.0026855-1.4101562,7.4042969-4.2265625,10.2058105-2.8183594,2.802002-6.2119141,4.2023926-10.1816406,4.2023926-4.0029297,0-7.3959961-1.4086914-10.1816406-4.2265625-2.7856445-2.8168945-4.1787109-6.2111816-4.1787109-10.1816406V14.4082031c0-4.0021973,1.4086914-7.4038086,4.2265625-10.2058105,2.8173828-2.8015137,6.1958008-4.2023926,10.1337891-4.2023926Zm4.9467773,14.2160645c0-1.440918-.5043945-2.6655273-1.5126953-3.6740723-1.0087891-1.0085449-2.2333984-1.5129395-3.6743164-1.5129395-1.4404297,0-2.6738281.5043945-3.6977539,1.5129395-1.0253906,1.0085449-1.5371094,2.2331543-1.5371094,3.6740723v32.9467773c0,1.440918.5117188,2.6655273,1.5371094,3.6740723,1.0239258,1.0085449,2.2573242,1.5129395,3.6977539,1.5129395,1.440918,0,2.6655273-.5043945,3.6743164-1.5129395,1.0083008-1.0085449,1.5126953-2.2331543,1.5126953-3.6740723V14.2160645Z"/>
    </g>
  </g>
</svg>