<?xml version="1.0" encoding="UTF-8"?>
<svg id="_レイヤー_2" data-name="レイヤー 2" xmlns="http://www.w3.org/2000/svg" xmlns:xlink="http://www.w3.org/1999/xlink" viewBox="0 0 1413.9682617 208">
  <defs>
    <style>
      .cls-1, .cls-2 {
        stroke-width: 0px;
      }

      .cls-2 {
        fill: none;
      }

      .cls-3 {
        clip-path: url(#clippath);
      }
    </style>
    <clipPath id="clippath">
      <rect class="cls-2" x="6.9682617" width="1407" height="208"/>
    </clipPath>
  </defs>
  <g id="_レイヤー_1-2" data-name="レイヤー 1">
    <g class="cls-3">
      <g>
        <path class="cls-1" d="m123.7138672,79.2261963l3.0927734-4.1734619c.2416992-.2409668.5146484-.6038818.8188477-1.088623.3012695-.4820557.5454102-.8449707.7275391-1.0887451.1821289-.2409668.4233398-.5444336.7275391-.9073486.3017578-.362793.5458984-.6350098.7280273-.8165283.1816406-.1813965.3920898-.331665.6367188-.4536133.2416992-.1190186.4833984-.1813965.7275391-.1813965,1.2109375,0,3.8208008,1.8144531,7.8232422,5.4436035,4.0024414,3.6290283,6.0039062,6.1097412,6.0039062,7.4395752-1.0917969,1.4515381-3.5791016,2.6026611-7.4594727,3.4475098v18.6896973c.3637695,15.6047363.7875977,27.5808105,1.2734375,35.9274902-.8496094,1.0888672-2.4873047,2.2087402-4.9121094,3.3569336-2.4277344,1.151123-4.6108398,1.723877-6.5493164,1.723877-1.5776367,0-2.3652344-1.2077637-2.3652344-3.6291504.1196289-.2409668.2104492-.6633301.2729492-1.2700195.0595703-.6040039.1503906-1.0888672.2729492-1.4516602v-3.0847168h-34.203125c8.0048828,10.161377,18.8896484,19.2963867,32.6567383,27.3994141,13.7641602,8.1057129,27.8041992,13.9716797,42.1171875,17.6008301l-.3637695,1.9960938c-2.4277344.362793-4.6108398,1.4799805-6.5498047,3.3566895-1.9414062,1.8742676-3.2749023,4.2019043-4.0024414,6.986084-13.8266602-5.3244629-26.7441406-12.8833008-38.7514648-22.6816406s-21.590332-21.048584-28.7451172-33.7502441v19.0524902c.3637695,15.848877.7871094,28.1848145,1.2734375,37.0163574-.7275391,1.329834-2.1831055,2.5998535-4.3662109,3.8105469-2.1835938,1.2077637-4.4291992,1.8144531-6.7314453,1.8144531-1.0917969,0-2.0014648-.394043-2.7290039-1.1794434-.7280273-.7880859-1.0917969-1.6640625-1.0917969-2.6308594.7275391-10.2834473,1.2109375-20.7453613,1.4555664-31.3913574v-17.6010742c-18.0737305,20.9294434-42.6347656,37.197998-73.6826172,48.810791l-1.8193359-3.0847168c13.8271484-6.776123,26.6533203-14.9980469,38.4785156-24.6774902,11.8256836-9.6765137,21.496582-19.9597168,29.0185547-30.8469238h-29.109375v6.713623c0,.6069336-1.0913086,1.3920898-3.2749023,2.3588867-2.1831055.9697266-4.3662109,1.4516602-6.5493164,1.4516602-1.9414062,0-2.9111328-1.2077637-2.9111328-3.6289062.4833984-5.5627441.847168-12.6394043,1.0917969-21.2299805v-12.5202637c0-15.6049805-.7900391-28.3066406-2.3652344-38.1051025l15.2822266,7.0766602h35.8408203v-19.4154053h-40.5708008c-8.9770508.1218262-18.3154297.9696045-28.0175781,2.5402832l-4.5483398-9.4355469c6.7910156.7258301,15.0380859,1.2106934,24.7426758,1.4516602h48.394043c0-10.2805176-.5458984-18.9306641-1.6376953-25.9477539,12.1269531,3.6290283,18.1933594,6.2912598,18.1933594,7.9838867.1196289.6066895-.3637695,1.2701416-1.4555664,1.9959717l-2.9106445,1.9959717v13.9719238h46.2104492l4.1845703-6.1694336c.3637695-.362915.8188477-.9072266,1.3642578-1.6330566.5458984-.7258301.9697266-1.298584,1.2739258-1.723877.3012695-.4223633.6650391-.8759766,1.0913086-1.3608398.4238281-.4819336.8188477-.8165283,1.1826172-.9979248.3637695-.1815186.6650391-.2722168.909668-.2722168,1.2109375,0,4.3037109,2.0866699,9.2783203,6.2601318,4.972168,4.1733398,7.4594727,6.9263916,7.4594727,8.2561035-.3637695,2.0583496-1.9414062,3.0847168-4.7304688,3.0847168h-68.2241211v19.4154053h36.0224609Zm-48.2119141,25.9477539v-20.5041504h-37.1142578v20.5041504h37.1142578Zm0,5.262085h-37.1142578v21.048584h37.1142578v-21.048584Zm50.03125-5.262085v-20.5041504h-37.8417969v20.5041504h37.8417969Zm-37.8417969,5.262085v21.048584h37.8417969v-21.048584h-37.8417969Z"/>
        <path class="cls-1" d="m174.0292969,188.6420898c9.0966797-6.2883301,17.6162109-13.5180664,25.5615234-21.6835938,7.9423828-8.1652832,13.6733398-16.3591309,17.1923828-24.5866699l9.0966797,6.5322266c4.7299805,2.0583496,6.9130859,3.6914062,6.5493164,4.8991699-.1220703.4848633-.7900391.7883301-2.0009766.9072266l-3.4570312.1816406c-5.5800781,6.4130859-13.0078125,13.0048828-22.2866211,19.7783203-9.2783203,6.776123-18.8295898,12.338623-28.6542969,16.6936035l-2.0009766-2.7219238Zm88.6005859-133.5490723h48.394043l4.5483398-6.1694336c.2416992-.362915.878418-1.2390137,1.9101562-2.6311035,1.0288086-1.3891602,1.7880859-2.2965088,2.2739258-2.7218018.4833984-.4223633.9697266-.6350098,1.4555664-.6350098,1.2109375,0,4.3349609,2.1177979,9.3696289,6.3508301,5.03125,4.2357178,7.550293,7.0170898,7.550293,8.3468018-.4863281,1.9364014-2.1235352,2.9031982-4.9121094,2.9031982h-124.9873047c-8.9770508.1219482-18.3154297.9697266-28.0175781,2.5404053l-5.0942383-9.4355469c6.7915039.7258301,15.1005859,1.2105713,24.9248047,1.4516602h50.3950195c0-10.524292-.5458984-19.4155273-1.637207-26.673584,12.3710938,3.5100098,18.4946289,6.1694336,18.375,7.9838867,0,.4848633-.4858398,1.0291748-1.4555664,1.6330566l-3.0927734,1.9959717v15.0606689Zm31.4741211,26.3105469l2.7290039-4.5362549c.2416992-.2409668.5146484-.6038818.8188477-1.0887451.3012695-.4819336.5458984-.8448486.7275391-1.0887451.1821289-.2409668.4238281-.5443115.7280273-.9072266.3012695-.362915.5458984-.6351318.7275391-.8165283.1821289-.1813965.3925781-.331665.6367188-.4536133.2416992-.1191406.4833984-.1815186.7280273-.1815186,1.2109375,0,3.9111328,1.8457031,8.0957031,5.5343018,4.1845703,3.6915283,6.2768555,6.2006836,6.2768555,7.5303955-1.4555664,1.6954346-4.0649414,2.9655762-7.8232422,3.8104248v14.3348389c.2416992,11.8568115.6054688,21.1109619,1.0917969,27.7623291-.6083984,1.088623-2.1547852,2.2084961-4.6396484,3.3566895-2.4873047,1.151123-4.7612305,1.723877-6.8222656,1.723877h-1.8193359v-9.0725098h-32.7475586v54.9799805c0,5.4436035-1.3647461,9.5859375-4.09375,12.4296875-2.7290039,2.8408203-8.2177734,4.6269531-16.4648438,5.3527832-.3637695-4.1140137-1.7592773-6.9575195-4.184082-8.5283203-2.9111328-2.0583496-8.8549805-3.6291504-17.8295898-4.7177734v-2.9033203c14.3100586,1.0888672,22.9233398,1.6330566,25.8344727,1.6330566,1.9384766,0,3.1835938-.2719727,3.7294922-.8164062s.8188477-1.4799805.8188477-2.8125v-54.6171875h-32.9296875v6.5322266c0,.6066895-1.1230469,1.4516602-3.3657227,2.5402832-2.2456055,1.088623-4.4575195,1.6330566-6.640625,1.6330566-.8500977,0-1.5776367-.3911133-2.1831055-1.1794434-.6083984-.7854004-.909668-1.661377-.909668-2.6311035.4833984-4.473877.847168-10.161377,1.0917969-17.0563965v-10.5244141c0-13.4274902-.668457-24.1331787-2.0014648-32.1170654l15.1000977,6.8951416h75.3198242Zm-76.4111328,5.0806885v35.3834229h77.8666992v-35.3834229h-77.8666992Zm62.5844727,62.0567627l1.637207-1.8144531c22.9238281,8.2277832,38.0834961,18.0856934,45.4829102,29.5769043,3.7583008,5.9282227,4.4858398,10.4023438,2.1835938,13.4274902-1.8193359,2.2963867-4.5483398,2.5402832-8.1870117.7258301-3.5195312-6.1694336-9.2788086-13.2148438-17.2836914-21.1394043-8.0048828-7.9213867-15.9501953-14.8479004-23.8330078-20.7763672Z"/>
        <path class="cls-1" d="m442.3061523,170.3154297c11.8852539-.6037598,17.7666016,1.6955566,17.6469727,6.8952637-.1220703,3.9919434-4.9121094,6.2912598-14.3725586,6.8952637-9.4604492.6066895-17.2548828.2719727-23.3779297-.9980469-6.1259766-1.2702637-11.2514648-4.4455566-15.3735352-9.5263672-4.1245117-5.0805664-6.8535156-10.3427734-8.1870117-15.786377-1.3359375-5.4436035-2.0634766-12.0949707-2.1831055-19.9597168-.1220703-7.8620605.7875977-15.7241211,2.7290039-23.5888672,1.9389648-7.8620605,4.3037109-14.4538574,7.0952148-19.7783203,2.7890625-5.3217773,5.5776367-10.0395508,8.3691406-14.1533203,2.7885742-4.111084,5.1225586-7.2581787,7.0043945-9.4355469,1.8789062-2.1774902,2.8198242-3.3256836,2.8198242-3.4476318-.3637695-.2409668-1.1230469-.2098389-2.2739258.0906982-1.1542969.3033447-2.4277344.6351318-3.8208008.9980469-1.3955078.362915-5.0029297,1.6954346-10.824707,3.9919434-5.8217773,2.2993164-11.9477539,4.8084717-18.3754883,7.5302734-6.4301758,2.7218018-10.159668,4.2641602-11.1884766,4.6270752-1.0322266.362915-3.5791016,1.6330566-7.6411133,3.8104248-4.0649414,2.1774902-7.1582031,3.4193115-9.2788086,3.7198486-2.1235352.3033447-5.2475586-.9356689-9.3691406-3.7198486-4.125-2.78125-7.2177734-5.8659668-9.2788086-9.2540283-1.0913086-1.3297119-1.2734375-2.387207-.5458984-3.175415.7280273-.7854004,1.6064453-.9667969,2.6381836-.5444336,1.0292969.425293,1.9389648.8166504,2.7290039,1.1794434.7875977.362915,1.4838867.6975098,2.0922852.9980469.6054688.3033447,1.5151367.6351318,2.7290039.9980469,1.2109375.362793,2.3022461.5443115,3.2749023.5443115.9692383,0,2.0917969-.1191406,3.3657227-.362915,1.2734375-.2409668,6.8222656-1.9959717,16.6464844-5.262085,27.8955078-9.3137207,49.7270508-15.1796875,65.4956055-17.6009521,1.8193359-.2409668,4.3662109-1.0263672,7.6411133-2.3588867,3.2749023-1.3297119,6.2763672-2.2681885,9.0053711-2.8125,2.7290039-.5444336,6.1547852,0,10.2792969,1.6330566,4.1220703,1.6330566,6.7314453,3.4191895,7.8232422,5.3527832,2.3022461,4.2358398,1.7568359,7.0172119-1.6376953,8.3469238-.4858398.362915-3.3374023.1218262-8.5507812-.7258301-5.2163086-.8449707-9.21875-1.4516602-12.0073242-1.8145752-2.7915039-.362915-6.4897461-.0283203-11.0976562.9980469-4.6108398,1.0291748-7.8544922,2.0866699-9.7333984,3.175415-1.8818359,1.0887451-4.8212891,4.2952881-8.8237305,9.6169434-4.0024414,5.324585-7.4907227,12.4012451-10.4614258,21.2299805-2.9731445,8.831665-4.9433594,18.0856934-5.9125977,27.762207-1.5776367,17.0566406.4238281,29.6987305,6.0039062,37.923584,1.4550781,2.0585938,3.6074219,3.6291504,6.4584961,4.7177734,2.8481445,1.0888672,5.1538086,1.6955566,6.9135742,1.8146973,1.7563477.1218262,4.7299805.0622559,8.9145508-.1813965,4.184082-.2412109,6.3959961-.3630371,6.640625-.3630371Zm27.1074219-131.9161377c.3642578-.8448486,2.6069336-.8448486,6.7314453,0,2.0610352.6068115,4.2441406,1.3920898,6.5498047,2.3588867,2.3027344.9696045,5.0942383,2.8748779,8.3686523,5.7158203,3.2749023,2.8436279,4.9121094,5.9595947,4.9121094,9.3448486,0,3.3879395-1.0913086,5.4434814-3.2744141,6.1693115-1.2138672.362915-2.7006836.1815186-4.4575195-.5443115-1.7597656-.7258301-3.1240234-2.1774902-4.0932617-4.3548584-3.6386719-7.8620605-7.2773438-12.8208008-10.9160156-14.8791504-2.4277344-1.8145752-3.7011719-3.0847168-3.8208008-3.8105469Zm19.4667969-9.2540283c.2416992-1.0887451,2.484375-1.2077637,6.7314453-.362915,2.5473633.2437744,5.699707,1.2701416,9.4604492,3.0847168,7.3969727,3.5098877,11.2172852,7.9838867,11.4619141,13.4274902.1191406,2.1773682-.8500977,3.7509766-2.9111328,4.7177734-3.2744141,1.3325195-6.1259766-.0595703-8.5507812-4.1734619-4.1245117-7.0142822-8.0673828-11.4910889-11.8251953-13.4274902-.1225586-.1191406-.3642578-.2409668-.7280273-.362915-2.6694336-1.2077637-3.8833008-2.1773682-3.6386719-2.9031982Z"/>
        <path class="cls-1" d="m512.0297852,191.1826172c-3.6386719-7.2583008-7.4589844-13.3056641-11.4619141-18.1452637-5.09375-6.1694336-9.4604492-10.5244141-13.0986328-13.0646973-2.3056641-1.692627-3.3974609-2.78125-3.2749023-3.2661133.2416992-.8449707,1.8193359-.8449707,4.7299805,0,1.0917969.2438965,3.152832.9694824,6.1860352,2.1774902,3.0302734,1.2104492,6.7910156,2.9343262,11.2797852,5.1713867,4.4853516,2.2397461,8.7607422,5.1430664,12.8261719,8.7097168,4.0620117,3.5693359,6.8818359,7.2893066,8.4594727,11.1591797,1.2109375,2.2966309,1.2421875,4.9587402.0913086,7.9841309-1.1542969,3.0222168-3.3061523,4.8991699-6.4589844,5.625-3.2744141.6037598-6.3671875-1.5141602-9.2783203-6.3508301Z"/>
        <path class="cls-1" d="m551.2612305,77.2342529l1.637207-1.8145752c14.4326172,1.8145752,23.5888672,6.413208,27.4716797,13.7904053,2.1831055,4.2358398,2.0014648,7.6209717-.5458984,10.161377-2.0634766,2.1773682-4.7924805,2.2993164-8.1865234.362915-1.3364258-3.8701172-3.9741211-7.8931885-7.9140625-12.0666504-3.9428711-4.1733398-8.0961914-7.649292-12.4624023-10.4334717Zm4.0024414,72.3995361h8.0048828c1.9389648,0,3.394043-1.2077637,4.3662109-3.6289062,2.0610352-4.4741211,13.5229492-32.1171875,34.3852539-82.9239502l3.2749023.9072266c-15.7685547,47.4215088-24.0776367,72.9439697-24.9248047,76.5731201-1.8193359,6.8952637-2.7290039,12.401123-2.7290039,16.512207,0,1.9362793.7875977,6.2912598,2.3652344,13.0644531,1.574707,6.776123,2.2426758,13.005127,2.0014648,18.6896973,0,3.8701172-.8500977,6.954834-2.5473633,9.2541504-1.699707,2.2963867-4.0649414,3.4475098-7.0952148,3.4475098-3.519043,0-5.4580078-3.0251465-5.8217773-9.0725098,1.0913086-9.3137207,1.4243164-17.3288574,1.0004883-24.0424805-.4262695-6.7138672-1.5463867-10.7341309-3.3657227-12.0666504-1.699707-1.329834-4.6704102-2.1774902-8.9145508-2.5402832v-4.173584Zm8.9145508-112.6821289l1.4555664-1.8144531c14.5546875,2.1773682,23.8925781,7.1390381,28.0175781,14.8791504,2.3022461,4.3548584,2.2426758,7.9838867-.1821289,10.887085-2.1831055,2.4212646-5.0942383,2.6027832-8.7329102.5444336-1.3359375-3.9920654-4.0024414-8.2845459-8.0048828-12.8831787-4.0024414-4.5958252-8.1870117-8.4659424-12.5532227-11.6130371Zm122.4399414,88.5490723l3.6386719-5.4436035c.2416992-.362793.6054688-.8759766,1.0917969-1.5424805.4833984-.6633301.878418-1.1481934,1.1826172-1.4516602.3012695-.300293.6367188-.6633301,1.0004883-1.088623.3637695-.4226074.6962891-.7258301,1.0004883-.9072266.3012695-.1813965.5742188-.2722168.8188477-.2722168,1.2109375,0,3.9711914,1.8769531,8.277832,5.625,4.3037109,3.7509766,6.4584961,6.2912598,6.4584961,7.6210938-.3632812,2.0583496-2.0009766,3.0847168-4.9121094,3.0847168h-45.1191406v58.4277344h32.9296875l3.6386719-5.4436035c2.7885742-3.7480469,4.5483398-5.625,5.2763672-5.625,1.2109375,0,4.0024414,1.9365234,8.3681641,5.8063965,4.3671875,3.8701172,6.5498047,6.4699707,6.5498047,7.8024902-.3632812,1.8146973-1.9414062,2.7219238-4.7304688,2.7219238h-87.5087891c-8.9770508.1188965-18.3154297.9667969-28.0175781,2.5402832l-4.7299805-9.2541504c6.7910156.7258301,15.0375977,1.2077637,24.7426758,1.4516602h32.0200195v-58.4277344h-14.5546875c-8.4912109.1218262-17.4057617.9694824-26.7441406,2.5402832l-4.7299805-9.6169434c6.7910156.7258301,15.0375977,1.2106934,24.7426758,1.4516602h21.2861328v-48.2664795h-14.5546875c-8.7329102.1218262-17.7695312.9696045-27.1079102,2.5402832l-4.7299805-9.4355469c6.7910156.7258301,15.0375977,1.2106934,24.7426758,1.4516602h63.6762695l3.8203125-5.625c2.6665039-3.6291504,4.4262695-5.4436035,5.2758789-5.4436035,1.2109375,0,3.9711914,1.9052734,8.277832,5.7156982,4.3041992,3.8105469,6.4584961,6.3820801,6.4584961,7.711792-.3632812,2.0583496-1.8818359,3.0847168-4.5478516,3.0847168h-49.8496094v48.2664795h26.5620117Zm-58.7636719-92.3594971l2.0009766-1.4516602c15.8881836,3.9919434,26.0761719,10.5866699,30.5649414,19.7783203,2.546875,5.324585,2.546875,9.6794434,0,13.0645752-2.4277344,3.0252686-5.7026367,3.2662354-9.824707.7258301-1.2138672-5.199707-4.0336914-10.824707-8.4594727-16.875-4.4291992-6.0476074-9.1875-11.1281738-14.2817383-15.2420654Z"/>
        <path class="cls-1" d="m864.4672852,64.7099609l4.1845703-5.8065186c.3642578-.4819336.7871094-1.0574951,1.2734375-1.7237549.4833984-.6634521.8789062-1.2390137,1.1826172-1.723877.3017578-.4819336.6367188-.9355469,1.0009766-1.3608398.3632812-.4224854.7275391-.7541504,1.0908203-.9980469.3642578-.2409668.6660156-.362793.9101562-.362793,1.2109375,0,4.2441406,2.0866699,9.0966797,6.2600098,4.8496094,4.1734619,7.2773438,6.9265137,7.2773438,8.2561035-.4863281,1.8145752-2.0634766,2.7218018-4.7304688,2.7218018h-28.9267578c-8.1279297,31.6947021-21.7128906,57.7020264-40.7529297,78.0247803,20.859375,18.3891602,46.3925781,31.6350098,76.5927734,39.7380371l-.5449219,2.1774902c-6.1865234.362793-10.3710938,3.6884766-12.5537109,9.9799805-28.7451172-9.9204102-52.2773438-24.7966309-70.5898438-44.6374512-21.2265625,19.71875-48.0292969,34.4135742-80.4140625,44.0930176l-1.2734375-2.9033203c31.65625-12.2167969,56.640625-28.4880371,74.9560547-48.810791-13.0986328-15.9677734-22.8632812-34.7763672-29.2910156-56.4317627-6.0664062,11.3720703-10.5517578,19.3560791-13.4628906,23.9517822,1.4560547,2.1774902,1.2109375,4.1137695-.7275391,5.8066406l-11.6435547-13.0646973c9.4599609-7.6210938,17.6474609-15.1796875,24.5605469-22.6816406l2.7294922-10.524292,7.8222656,2.9033203-6.9130859,8.8911133c6.9130859,20.5665283,17.9492188,38.5899658,33.1113281,54.072876,16.0107422-19.7158203,27.2275391-43.2452393,33.6582031-70.585083h-83.3251953c-8.9775391.1219482-18.3154297.9697266-28.0175781,2.5404053l-4.7304688-9.2541504c6.7910156.7258301,15.1005859,1.2106934,24.9248047,1.4516602h51.6689453c0-14.5162354-.7275391-26.5516357-2.1835938-36.1091309,12.4912109,3.5100098,18.7988281,6.1098633,18.9208984,7.8024902.1191406.4848633-.3632812,1.0887451-1.4550781,1.8145752l-3.0927734,1.9959717v24.4960938h49.6669922Z"/>
        <path class="cls-1" d="m917.8823242,98.1899414c-7.1582031,11.0091553-14.7363281,20.5043945-22.7412109,28.4880371l-2.7294922-1.8144531c10.9160156-15.2419434,20.7402344-33.9316406,29.4736328-56.0688477,2.4248047-5.6845703,4.6669922-12.4578857,6.7314453-20.3227539,2.0605469-7.8619385,3.3339844-14.3347168,3.8203125-19.4154053,12.7353516,4.1138916,19.1025391,6.9575195,19.1025391,8.5283203,0,.4847412-.5458984.9072266-1.6376953,1.2701416l-3.6386719,1.2701416c-5.8212891,16.3306885-13.0390625,32.0576172-21.6494141,47.1777344,7.5185547,4.9615479,10.3701172,8.1654053,8.5507812,9.6169434-.2441406.2438965-.5458984.425293-.9101562.5444336l-2.7285156,1.088623v53.5286865c.2412109,15.1228027.7275391,29.6391602,1.4550781,43.548584-3.0332031,3.3852539-6.6113281,5.0805664-10.7333984,5.0805664-1.0917969,0-2.0927734-.394043-3.0019531-1.1794434-.9101562-.7880859-1.3642578-1.6640625-1.3642578-2.6308594,1.0908203-15.9680176,1.7568359-32.0549316,2.0009766-48.2666016v-50.4438477Zm110.4326172,27.2180176l3.6386719-5.4436035c2.7880859-3.5073242,4.5478516-5.262207,5.2763672-5.262207,1.2109375,0,3.9707031,1.8457031,8.2773438,5.5344238,4.3037109,3.6914062,6.4589844,6.2004395,6.4589844,7.5302734-.3642578,2.0583496-1.9414062,3.0847168-4.7304688,3.0847168h-45.6650391v56.0688477h33.1113281l4.0029297-5.9880371c2.9111328-3.869873,4.7304688-5.8063965,5.4580078-5.8063965,1.2109375,0,4.2128906,2.0583496,9.0058594,6.1694336,4.7890625,4.1137695,7.1855469,6.8327637,7.1855469,8.1652832-.6083984,2.0556641-2.1826172,3.0847168-4.7294922,3.0847168h-87.1455078c-8.9775391.1191406-18.3154297.9667969-28.0175781,2.5402832l-4.5488281-9.6169434c6.7919922.7258301,15.0380859,1.2077637,24.7431641,1.4516602h28.9267578v-56.0688477h-14.0087891c-8.1269531.1218262-16.5556641.9694824-25.2880859,2.5402832l-4.7304688-9.4355469c6.7910156.7258301,15.0380859,1.2106934,24.7431641,1.4516602h19.2841797v-47.1777344h-16.9189453c-8.9775391.1218262-18.3154297.9696045-28.0175781,2.5402832l-4.7304688-9.4355469c6.7910156.7258301,15.1005859,1.2106934,24.9248047,1.4516602h66.5869141l4.0029297-5.4436035c.3632812-.4819336.96875-1.3297119,1.8193359-2.5402832.8466797-1.2078857,1.5146484-2.055542,2.0009766-2.5404053.4833984-.4819336.96875-.7258301,1.4550781-.7258301,1.2109375,0,4.09375,1.9676514,8.6416016,5.8972168,4.5488281,3.9324951,6.8232422,6.5635986,6.8232422,7.8931885-.4863281,1.9365234-2.0644531,2.9033203-4.7304688,2.9033203h-49.8496094v47.1777344h26.7441406Zm-55.6708984-91.633667l1.8193359-1.6330566c17.2207031,4.7177734,28.3808594,11.7348633,33.4755859,21.0484619,2.7880859,5.2026367,2.9101562,9.2541504.3632812,12.1573486-1.9414062,2.2993164-4.6708984,2.480835-8.1865234.5443115-1.9414062-5.199707-5.6113281-10.824707-11.0068359-16.875-5.3984375-6.0474854-10.8876953-11.1281738-16.4648438-15.2420654Z"/>
        <path class="cls-1" d="m1132.7573242,98.4602051c-17.2236328,3.7509766-32.7470703,6.3508301-46.5742188,7.8024902l-.7275391-3.6291504c21.4677734-3.9919434,43.4189453-10.098877,65.859375-18.3266602,12.2490234-4.5959473,22.0732422-9.7984619,29.4726562-15.6049805,9.4599609,9.0726318,13.6445312,14.0343018,12.5527344,14.8791504-.3632812.362915-1.2128906.4848633-2.546875.362915l-4.5478516-.5443115c-9.0966797,3.5098877-22.9863281,7.6209717-41.6621094,12.3387451v33.024292l58.5820312-8.5283203,3.2744141-6.1694336c.2412109-.362793.5458984-.9355469.9091797-1.7236328.3642578-.7854004.6660156-1.3891602.9101562-1.8144531.2412109-.4223633.5146484-.8760986.8183594-1.3609619.3017578-.4820557.6054688-.8448486.9101562-1.0887451.3007812-.2409668.5742188-.362915.8183594-.362915,1.3330078,0,4.5175781,1.5423584,9.5517578,4.6270752,5.03125,3.0847168,7.5498047,5.2338867,7.5498047,6.4414062-.2441406,2.2995605-1.6376953,3.5695801-4.1845703,3.810791l-79.1396484,11.4313965v45.3632812c0,2.2993164.6650391,3.8415527,2.0009766,4.6269531,1.3330078.7880859,4.4257812,1.1794434,9.2783203,1.1794434h25.6523438c12.4912109,0,20.5585938-.1813965,24.1972656-.5444336,2.3027344-.362793,3.8798828-1.3295898,4.7304688-2.9030762,1.2109375-2.5405273,3.3339844-11.8540039,6.3671875-27.9438477h2.3652344l.3632812,29.0324707c2.3027344.7258301,3.8808594,1.4829102,4.7304688,2.2680664.8476562.7854004,1.2734375,1.8430176,1.2734375,3.1755371,0,3.1442871-2.8818359,5.262207-8.6416016,6.3508301-5.7617188,1.088623-17.6787109,1.6330566-35.7490234,1.6330566h-26.3808594c-8.7324219,0-14.5859375-.9697266-17.5556641-2.9033203-2.9736328-1.9362793-4.4580078-5.7468262-4.4580078-11.4313965v-46.0891113l-64.4033203,9.2541504-1.8193359-5.262207,66.2226562-9.4355469v-31.9355469Zm75.6835938-42.6413574l3.4570312-4.536377c.2412109-.2409668.5742188-.6634521,1.0009766-1.2701416.4228516-.6038818.7871094-1.0576172,1.0908203-1.3609619.3017578-.3005371.6367188-.6350098,1.0009766-.9979248s.6962891-.6351318,1.0009766-.8165283c.3007812-.1815186.5742188-.2722168.8183594-.2722168,1.0917969,0,3.5761719,2.1774902,7.4589844,6.5322266,3.8808594,4.3549805,5.8222656,7.1986084,5.8222656,8.5283203-1.0917969,1.0887451-3.3974609,1.7550049-6.9140625,1.9959717-7.1572266,9.0726318-14.7363281,16.6341553-22.7412109,22.6816406l-2.0009766-1.4516602c4.0019531-8.1030273,7.3964844-15.9677734,10.1884766-23.5888672h-117.5283203c.1191406,11.8568115-3.2744141,20.2036133-10.1884766,25.0405273-2.546875,1.8144531-5.125,2.7529297-7.7314453,2.8125-2.6103516.0623779-4.4580078-.9356689-5.5498047-2.9940186-1.6992188-3.6290283-.3632812-7.0142822,4.0029297-10.1612549,4.1220703-2.5404053,7.5791016-6.6230469,10.3701172-12.2481689,2.7890625-5.625,3.9404297-11.7036133,3.4570312-18.2359619l2.9101562-.1813965c1.2119141,4.2357178,2.0019531,7.7429199,2.3652344,10.524292h50.7597656c0-10.7653809-.5458984-19.8974609-1.6376953-27.3994141,12.3710938,3.3880615,18.4941406,5.987915,18.375,7.8024902,0,.4847412-.4863281,1.088623-1.4550781,1.8144531l-3.09375,1.9959717v15.786499h54.7617188Z"/>
        <path class="cls-1" d="m1338.5512695,83.0367432c5.9414062-3.0223389,11.734375-4.111084,17.3740234-3.2662354,5.640625.8477783,9.4892578,3.7509766,11.5527344,8.7097168,2.0615234,4.9616699,1.3339844,9.7390137-2.1826172,14.3348389-4.4892578,6.050293-12.4335938,11.4315186-23.8330078,16.149292-2.0644531.8476562-6.8847656,2.7841797-14.4638672,5.8063965-7.5810547,3.0251465-13.5537109,5.5061035-17.9199219,7.4396973-.6083984,4.9614258-.8505859,10.5554199-.7275391,16.7844238.1191406,6.2316895.1503906,9.951416.0908203,11.1591797-.0625,1.2106934-.8505859,2.5119629-2.3652344,3.9013672-1.5185547,1.3920898-3.0332031,1.9958496-4.5488281,1.8144531-1.5175781-.1813965-2.7910156-.8759766-3.8203125-2.0866699-1.0322266-1.2077637-1.609375-2.418457-1.7285156-3.6291504-.1220703-1.692627.4833984-9.1320801,1.8193359-22.3186035-9.5820312,4.3547363-16.2539062,9.9799805-20.0126953,16.875-2.4267578,4.4768066-3.4277344,8.4377441-3.0009766,11.8852539.4228516,3.4475098,2.3642578,6.1098633,5.8212891,7.9838867,3.4570312,1.8769531,7.1240234,3.0563965,11.0068359,3.5383301,7.8828125.4848633,13.5224609.5754395,16.9199219.2722168,3.3935547-.3005371,8.2460938-1.1794434,14.5546875-2.6311035,9.0966797-2.0554199,14.3095703-1.2077637,15.6455078,2.5402832.8476562,2.6623535-.5458984,4.8991699-4.1845703,6.7138672-8.9765625,4.473877-22.5595703,5.7441406-40.7519531,3.8105469-9.5830078-1.0888672-16.1640625-3.4477539-19.7402344-7.0766602-3.5791016-3.6291504-5.5800781-7.7402344-6.0039062-12.3388672-.4257812-4.5959473.5146484-9.4638672,2.8203125-14.6069336,2.3027344-5.1401367,6.5498047-10.0083008,12.7353516-14.6069336,3.6386719-2.418457,8.4882812-5.1401367,14.5546875-8.1655273.4833984-10.2802734-.7275391-17.4194336-3.6386719-21.4111328-1.7001953-2.1776123-4.125-3.385376-7.2773438-3.6292725-6.3076172-.6038818-14.4951172,5.9285889-24.5605469,19.5970459-7.0361328,9.7983398-11.0986328,15.0915527-12.1894531,15.8769531-1.0917969.7883301-2.5185547.7570801-4.2753906-.0905762-1.7597656-.8449707-2.9423828-1.9960938-3.5478516-3.4477539-.6083984-1.4516602-.7587891-3.2944336-.4550781-5.5341797.3017578-2.2370605.7871094-3.748291,1.4560547-4.536377.6650391-.7854004,2.4560547-2.5092773,5.3662109-5.1713867,7.7607422-7.0141602,13.21875-13.3056641,16.3740234-18.8710938,6.5498047-11.2501221,11.6435547-22.8006592,15.2822266-34.6574707-7.2773438,1.9364014-13.4628906,2.5402832-18.5566406,1.8144531-5.0947266-.725708-10.6152344-3.5070801-16.5556641-8.3468018-.7285156-.7258301-.9101562-1.3297119-.5458984-1.8144531.3632812-.4820557,2.3339844-.1191406,5.9121094,1.088623,3.5761719,1.2106934,8.4287109,1.6047363,14.5546875,1.1794434,6.1230469-.4223633,12.0986328-1.661377,17.9208984-3.7197266l.5458984-3.2661133.5449219-3.2662354c.7285156-6.2884521-1.0908203-11.25-5.4570312-14.8790283-.7285156-.6038818-.9726562-1.4205322-.7285156-2.449707.2421875-1.0262451,1.0292969-1.5423584,2.3652344-1.5423584,1.3330078,0,3.5478516.3345947,6.640625.9980469,3.0927734.6662598,5.0625,1.4827881,5.9130859,2.449585.8466797,1.5736084,1.0917969,4.1138916.7275391,7.6209717,2.0605469,2.0584717,5.6396484,2.7841797,10.734375,2.1774902.7275391-.6038818,2.2734375-.8760986,4.6386719-.8165283,2.3652344.0623779,3.7578125.8789062,4.1845703,2.449585.4238281,1.5736084-.3349609,3.4476318-2.2744141,5.625-4.1240234,4.4768066-11.8251953,8.6502686-23.1054688,12.5202637-4.3662109,13.9123535-8.7324219,25.7067871-13.0986328,35.3833008,5.4580078-2.9031982,11.4619141-3.4476318,18.0107422-1.6330566,3.1533203.8477783,5.8505859,2.7841797,8.0966797,5.8065186,2.2421875,3.0252686,3.7294922,5.8065186,4.4570312,8.3468018l.9101562,3.9919434c7.5185547-17.5385742,18.1923828-29.817749,32.0195312-36.8348389Zm-45.4833984-32.8430176c-.3632812,2.0583496-.9716797,4.2358398-1.8193359,6.5323486,1.3339844-.6038818,3.2753906-1.7521973,5.8222656-3.4476318-.3642578-1.4516602-1.7001953-2.4779053-4.0029297-3.0847168Zm17.1015625,75.84729c12.0078125-5.5627441,20.7402344-9.9799805,26.1982422-13.2460938s10.0068359-6.7137451,13.6455078-10.3427734c6.9130859-7.0142822,8.9746094-12.3387451,6.1855469-15.9678955-3.2744141-2.1773682-7.7636719-2.1462402-13.4628906.0908203-5.7021484,2.2397461-10.8251953,5.5966797-15.3730469,10.0705566-4.5488281,4.4768066-8.0048828,8.7097168-10.3701172,12.7016602-2.3652344,3.9920654-4.5800781,9.4354248-6.640625,16.3306885l-.1826172.3630371Z"/>
        <path class="cls-1" d="m1371.2514648,154.8920898c4.7890625-4.7177734,10.5800781-7.0766602,17.3740234-7.0766602,6.7910156,0,12.5224609,2.3588867,17.1923828,7.0766602,4.6679688,4.7177734,7.0048828,10.4050293,7.0048828,17.0563965,0,6.776123-2.3369141,12.5202637-7.0048828,17.2380371-4.6699219,4.7177734-10.4013672,7.0766602-17.1923828,7.0766602-6.7939453,0-12.5849609-2.3588867-17.3740234-7.0766602-4.7929688-4.7177734-7.1865234-10.4619141-7.1865234-17.2380371,0-6.6513672,2.3935547-12.338623,7.1865234-17.0563965Zm3.4560547,31.0283203c3.9404297,3.8701172,8.5791016,5.8063965,13.9179688,5.8063965,5.3359375,0,9.9433594-1.9362793,13.8271484-5.8063965,3.8798828-3.8701172,5.8212891-8.5283203,5.8212891-13.9719238,0-5.3215332-1.9414062-9.8891602-5.8212891-13.699707-3.8837891-3.8105469-8.4912109-5.7155762-13.8271484-5.7155762-5.3388672,0-9.9775391,1.9050293-13.9179688,5.7155762-3.9423828,3.8105469-5.9121094,8.3781738-5.9121094,13.699707,0,5.4436035,1.9697266,10.1018066,5.9121094,13.9719238Z"/>
      </g>
    </g>
  </g>
</svg>